<?xml version="1.0" standalone="no"?>
<!DOCTYPE svg PUBLIC "-//W3C//DTD SVG 20010904//EN"
 "http://www.w3.org/TR/2001/REC-SVG-20010904/DTD/svg10.dtd">
<svg version="1.0" xmlns="http://www.w3.org/2000/svg"
 width="512.000000pt" height="512.000000pt" viewBox="0 0 512.000000 512.000000"
 preserveAspectRatio="xMidYMid meet">

<g transform="translate(0.000000,512.000000) scale(0.100000,-0.100000)"
fill="#000000" stroke="none">
<path d="M2414 5110 c-360 -41 -655 -181 -905 -430 -164 -164 -267 -318 -344
-518 -65 -170 -106 -390 -105 -576 l1 -71 17 50 c21 62 60 114 111 150 41 27
118 55 156 55 19 0 24 7 30 46 35 236 155 467 339 650 188 188 396 296 657
340 168 28 387 10 560 -47 423 -138 740 -508 813 -950 6 -35 8 -36 67 -47 112
-21 205 -104 236 -212 12 -40 13 -29 8 110 -8 251 -55 436 -166 650 -209 403
-593 692 -1038 781 -109 22 -331 32 -437 19z"/>
<path d="M1060 2825 c0 -205 4 -298 15 -348 37 -174 168 -305 342 -342 54 -12
179 -15 621 -15 612 0 598 -1 645 64 30 42 31 132 1 173 -47 65 -31 63 -654
63 -546 0 -566 1 -598 20 -65 40 -72 65 -72 256 l0 171 -45 6 c-99 14 -184 80
-229 177 l-26 55 0 -280z"/>
<path d="M3691 902 c-55 -27 -76 -64 -76 -132 0 -68 21 -105 76 -132 51 -26
387 -26 438 0 55 27 76 64 76 132 0 68 -21 105 -76 132 -29 15 -63 18 -219 18
-156 0 -190 -3 -219 -18z"/>
</g>
</svg>
