<?xml version="1.0" standalone="no"?>
<!DOCTYPE svg PUBLIC "-//W3C//DTD SVG 20010904//EN"
 "http://www.w3.org/TR/2001/REC-SVG-20010904/DTD/svg10.dtd">
<svg version="1.0" xmlns="http://www.w3.org/2000/svg"
 width="512.000000pt" height="512.000000pt" viewBox="0 0 512.000000 512.000000"
 preserveAspectRatio="xMidYMid meet">

<g transform="translate(0.000000,512.000000) scale(0.100000,-0.100000)"
fill="#000000" stroke="none">
<path d="M2315 5109 c-798 -81 -1501 -518 -1927 -1196 -487 -774 -516 -1777
-75 -2578 196 -357 489 -677 822 -900 335 -223 691 -357 1110 -417 117 -16
512 -17 630 0 631 88 1152 360 1577 821 349 378 572 862 650 1406 17 118 17
512 0 630 -59 416 -191 769 -410 1099 -92 140 -185 254 -315 385 -399 404
-893 653 -1462 737 -122 18 -477 26 -600 13z m580 -294 c299 -47 576 -146 830
-297 593 -354 986 -944 1092 -1638 24 -161 24 -483 0 -640 -66 -420 -222 -781
-479 -1107 -85 -109 -275 -294 -388 -380 -393 -297 -834 -454 -1320 -470
-1255 -40 -2302 940 -2347 2197 -38 1075 677 2026 1723 2291 99 25 247 50 369
63 82 8 423 -4 520 -19z"/>
<path d="M1878 4103 c-9 -10 -133 -181 -277 -381 l-261 -362 0 -1180 0 -1180
1225 0 1225 0 0 1173 0 1172 -278 385 -278 385 -671 3 c-628 2 -671 1 -685
-15z m1400 -572 l202 -280 0 -970 0 -971 -920 0 -920 0 0 971 0 971 201 279
201 279 517 0 517 0 202 -279z"/>
<path d="M2508 3681 c-96 -31 -152 -145 -117 -238 13 -34 55 -80 91 -99 15 -8
50 -14 78 -14 57 0 93 15 132 57 99 105 33 282 -112 298 -25 2 -57 0 -72 -4z"/>
<path d="M2139 3107 c-255 -72 -345 -377 -169 -570 71 -78 149 -112 255 -112
65 1 91 6 137 27 75 35 141 98 175 167 25 49 28 67 28 151 0 84 -3 102 -28
151 -70 143 -250 228 -398 186z m123 -294 c36 -32 12 -103 -35 -103 -49 0 -75
64 -40 102 20 22 51 23 75 1z"/>
<path d="M2905 2831 c-16 -10 -231 -221 -477 -467 -388 -390 -447 -454 -453
-486 -9 -49 9 -101 46 -133 38 -31 68 -39 121 -32 39 5 69 33 495 459 250 249
459 461 465 472 5 10 10 37 10 61 2 108 -119 182 -207 126z"/>
<path d="M2793 2156 c-96 -31 -187 -119 -223 -214 -33 -87 -25 -195 20 -280
62 -117 155 -175 290 -180 113 -5 180 19 253 91 81 80 102 131 102 252 0 89
-3 105 -27 150 -35 68 -97 128 -165 161 -66 33 -183 42 -250 20z m153 -305
c16 -30 4 -62 -28 -80 -23 -13 -29 -13 -52 2 -30 20 -35 66 -10 92 24 24 76
16 90 -14z"/>
</g>
</svg>
