<?xml version="1.0" standalone="no"?>
<!DOCTYPE svg PUBLIC "-//W3C//DTD SVG 20010904//EN"
 "http://www.w3.org/TR/2001/REC-SVG-20010904/DTD/svg10.dtd">
<svg version="1.0" xmlns="http://www.w3.org/2000/svg"
 width="512.000000pt" height="512.000000pt" viewBox="0 0 512.000000 512.000000"
 preserveAspectRatio="xMidYMid meet">

<g transform="translate(0.000000,512.000000) scale(0.100000,-0.100000)"
fill="#000000" stroke="none">
<path d="M2240 5111 c-49 -16 -87 -40 -119 -76 -17 -20 -31 -39 -31 -44 0 -4
-11 -20 -25 -35 -31 -33 -79 -34 -143 -2 -92 46 -176 42 -256 -13 -43 -30 -89
-101 -101 -158 -8 -38 -47 -73 -81 -73 -12 0 -45 5 -73 12 -83 19 -151 -2
-216 -65 -57 -56 -75 -98 -75 -175 0 -49 -21 -96 -47 -107 -10 -4 -46 -9 -81
-11 -164 -10 -265 -147 -228 -307 12 -50 11 -61 -3 -90 -13 -26 -28 -36 -79
-54 -83 -30 -126 -64 -157 -126 -36 -72 -34 -142 5 -225 17 -35 30 -70 30 -77
0 -31 -26 -66 -64 -89 -133 -78 -165 -209 -88 -358 2 -5 -58 -8 -133 -8 -143
0 -185 -10 -227 -57 -24 -26 -48 -87 -48 -121 0 -16 34 -127 75 -247 41 -119
75 -229 75 -244 0 -16 -34 -127 -75 -247 -41 -120 -75 -234 -75 -252 0 -66 50
-138 113 -161 18 -7 143 -11 336 -11 l309 0 5 -28 c3 -15 21 -50 39 -77 42
-63 100 -93 198 -104 62 -6 77 -12 97 -35 12 -15 23 -35 23 -45 0 -10 -78
-180 -174 -377 -95 -198 -177 -372 -180 -387 -14 -61 32 -150 96 -183 24 -13
437 -74 497 -74 8 0 96 -80 195 -179 193 -190 220 -208 298 -198 22 3 57 17
78 31 33 22 51 52 145 243 59 120 132 271 162 335 49 104 59 118 81 118 50 0
105 25 155 69 67 60 109 63 164 9 44 -43 115 -77 159 -78 30 0 33 -5 87 -117
30 -65 103 -216 162 -336 94 -191 112 -221 145 -243 21 -14 56 -28 78 -31 77
-10 105 8 297 197 l180 177 220 27 c121 15 238 32 260 38 85 22 148 125 125
206 -20 71 -94 206 -121 221 -38 21 -76 7 -96 -34 -16 -34 -16 -34 31 -131 38
-79 44 -100 34 -109 -7 -7 -112 -25 -233 -40 -121 -15 -238 -32 -260 -38 -32
-9 -77 -47 -221 -189 -100 -98 -186 -178 -192 -178 -17 0 -30 23 -182 336
l-142 292 20 23 c11 13 35 44 54 69 44 58 79 64 152 23 42 -23 63 -28 121 -28
59 0 78 4 118 28 54 32 102 92 113 140 18 84 65 119 133 98 68 -20 133 -14
195 19 l56 29 30 -58 c35 -71 71 -91 118 -67 58 30 56 54 -18 205 -33 67 -60
131 -60 141 0 10 12 32 26 49 22 27 33 31 73 31 63 0 131 21 173 54 35 26 88
111 88 140 0 14 31 16 310 16 238 0 318 3 343 14 50 20 95 78 103 132 6 41 -2
71 -70 273 -42 124 -76 237 -76 251 0 14 34 123 75 243 41 120 75 232 75 248
0 35 -24 95 -48 122 -42 47 -84 57 -227 57 -75 0 -135 3 -133 8 30 58 41 95
41 142 0 94 -43 165 -129 216 -38 23 -64 58 -64 89 0 7 13 42 30 77 39 83 41
153 5 225 -31 62 -74 96 -157 126 -85 30 -101 58 -82 149 21 100 -3 176 -74
240 -45 41 -85 56 -162 62 -30 2 -63 7 -73 11 -28 11 -47 59 -47 117 -1 70
-27 124 -83 175 -56 49 -118 68 -185 59 -26 -4 -63 -10 -82 -13 -47 -6 -84 23
-98 79 -41 160 -206 238 -349 165 -69 -35 -116 -35 -148 -1 -14 15 -25 31 -25
35 0 18 -65 81 -104 102 -31 16 -59 21 -111 21 -79 0 -108 -11 -180 -74 -31
-27 -56 -40 -75 -40 -19 0 -44 13 -75 40 -26 22 -60 47 -77 56 -36 19 -132 27
-168 15z m99 -150 c10 -6 33 -24 51 -41 47 -43 84 -61 144 -67 73 -7 127 11
197 67 93 75 124 67 201 -48 62 -94 195 -119 315 -61 68 33 91 32 130 -3 12
-11 25 -35 29 -52 18 -85 90 -164 169 -186 42 -12 75 -11 177 6 32 5 41 2 68
-24 25 -25 30 -38 30 -79 0 -67 16 -116 53 -165 44 -57 106 -88 192 -93 51 -4
74 -10 91 -26 26 -25 35 -64 22 -98 -16 -43 -11 -136 10 -183 26 -60 89 -114
156 -133 96 -28 118 -81 70 -174 -64 -122 -28 -250 90 -326 91 -58 93 -111 8
-202 l-40 -43 -90 0 -90 0 -7 68 c-29 278 -130 565 -281 792 -73 111 -95 133
-133 133 -78 0 -93 -73 -33 -156 159 -217 267 -499 297 -774 l7 -63 -1342 0
c-839 0 -1348 -4 -1359 -10 -10 -5 -24 -22 -30 -39 -10 -24 -10 -34 3 -59 8
-16 23 -32 31 -36 9 -3 797 -6 1751 -6 1379 0 1736 -3 1739 -12 3 -7 -29 -114
-70 -238 -50 -151 -75 -240 -75 -271 0 -32 24 -119 75 -270 42 -123 73 -229
70 -236 -7 -19 -4803 -19 -4810 -1 -3 7 29 114 70 238 49 148 75 240 75 270 0
30 -26 122 -75 270 -41 124 -73 231 -70 238 3 9 115 12 513 12 500 0 510 0
536 21 36 28 36 80 0 108 -24 19 -41 21 -141 21 l-115 0 7 63 c75 692 585
1259 1264 1407 451 99 939 -9 1314 -290 59 -45 115 -80 128 -80 61 0 92 88 47
131 -83 78 -255 190 -393 255 -277 130 -606 191 -892 165 -247 -23 -432 -75
-648 -182 -543 -268 -909 -797 -970 -1401 l-7 -68 -90 0 -90 0 -40 43 c-85 92
-84 141 5 200 122 81 157 205 93 328 -49 95 -28 145 73 175 64 19 127 73 153
132 21 47 26 140 10 183 -13 34 -4 73 22 98 17 16 40 22 91 26 151 10 245 109
245 258 0 41 5 54 30 79 27 26 36 29 68 24 102 -17 135 -18 177 -6 79 22 151
101 169 186 4 17 17 41 29 52 39 35 62 36 130 3 120 -58 253 -33 315 61 61 91
101 115 151 89z m-970 -3335 c239 -225 559 -382 901 -442 156 -28 444 -26 603
4 334 63 642 217 878 438 l68 64 198 0 198 -1 -33 -29 c-28 -26 -40 -30 -90
-30 -139 0 -242 -108 -242 -252 0 -42 -5 -54 -30 -80 -29 -28 -34 -30 -78 -23
-190 32 -290 -23 -338 -186 -11 -36 -22 -53 -44 -64 -40 -21 -49 -19 -122 15
-117 55 -243 29 -305 -62 -76 -112 -122 -126 -196 -59 -65 59 -103 75 -177 75
-74 0 -112 -16 -177 -75 -66 -60 -121 -53 -169 23 -79 125 -200 161 -332 98
-73 -34 -82 -36 -122 -15 -22 11 -33 28 -44 64 -27 92 -64 140 -136 177 -38
19 -116 23 -206 9 -48 -7 -51 -6 -77 25 -21 24 -27 42 -27 79 0 143 -104 250
-242 251 -50 0 -62 4 -90 30 l-33 29 198 1 198 0 68 -64z m2191 33 c-57 -49
-189 -134 -279 -179 -453 -226 -989 -226 -1442 0 -90 45 -222 130 -279 179
l-35 30 1035 0 1035 0 -35 -30z m-2208 -539 c28 0 68 5 89 11 68 21 115 -14
133 -98 11 -48 59 -108 113 -140 40 -24 59 -28 118 -28 58 0 79 5 121 28 73
41 108 35 152 -23 19 -25 43 -56 54 -69 l20 -23 -142 -292 c-153 -314 -165
-336 -182 -336 -6 0 -92 80 -192 178 -144 142 -189 180 -221 189 -22 6 -139
24 -260 39 -121 15 -226 32 -233 39 -10 9 15 68 127 298 l140 287 56 -30 c41
-22 71 -30 107 -30z"/>
<path d="M2115 3895 l-25 -24 0 -301 c0 -287 1 -301 20 -320 30 -30 83 -27
109 6 20 26 21 38 21 321 l0 294 -25 24 c-13 14 -36 25 -50 25 -14 0 -37 -11
-50 -25z"/>
<path d="M2643 3906 c-23 -7 -62 -25 -86 -39 -146 -86 -204 -278 -133 -435 58
-126 178 -202 320 -202 169 0 285 116 303 305 4 51 2 64 -15 85 -19 23 -27 25
-129 28 -98 3 -111 2 -136 -18 -20 -16 -27 -30 -27 -56 0 -52 28 -74 95 -74
30 0 55 -2 55 -5 0 -15 -31 -63 -55 -85 -23 -22 -36 -25 -100 -25 -67 0 -76 3
-112 31 -55 45 -77 88 -78 154 0 70 28 125 84 165 38 26 51 30 109 29 50 0 78
-6 109 -23 37 -20 45 -21 70 -9 15 7 34 25 43 41 22 40 0 75 -73 111 -69 35
-176 44 -244 22z"/>
<path d="M1470 3890 c-19 -19 -20 -33 -20 -325 0 -292 1 -306 20 -325 25 -25
71 -26 101 -1 22 18 24 27 27 140 l4 121 108 0 108 0 4 -121 c3 -113 5 -122
27 -140 30 -25 76 -24 101 1 19 19 20 33 20 325 0 292 -1 306 -20 325 -25 25
-71 26 -101 1 -22 -18 -24 -28 -27 -130 l-4 -111 -108 0 -108 0 -4 111 c-3
102 -5 112 -27 130 -30 25 -76 24 -101 -1z"/>
<path d="M3170 3890 c-19 -19 -20 -33 -20 -325 0 -292 1 -306 20 -325 25 -25
71 -26 101 -1 22 18 24 27 27 140 l4 121 108 0 108 0 4 -121 c3 -113 5 -122
27 -140 30 -25 76 -24 101 1 19 19 20 33 20 325 0 292 -1 306 -20 325 -25 25
-71 26 -101 1 -22 -18 -24 -28 -27 -130 l-4 -111 -108 0 -108 0 -4 111 c-3
102 -5 112 -27 130 -30 25 -76 24 -101 -1z"/>
<path d="M723 2700 c-176 -35 -302 -216 -273 -393 36 -224 273 -355 479 -266
l48 20 39 -26 c43 -30 78 -27 107 7 24 29 21 71 -8 106 l-25 30 23 48 c31 68
31 198 -1 267 -47 105 -127 173 -237 202 -64 16 -88 17 -152 5z m174 -175 c66
-39 107 -138 87 -212 l-6 -21 -35 24 c-44 29 -63 30 -97 3 -33 -26 -35 -75 -5
-113 25 -32 23 -36 -29 -43 -51 -7 -105 11 -148 50 -64 55 -83 123 -59 204 17
57 75 118 122 129 16 3 33 7 38 10 22 8 93 -9 132 -31z"/>
<path d="M1403 2698 c-40 -19 -45 -52 -41 -284 3 -202 5 -222 25 -259 83 -154
285 -190 418 -73 80 71 85 88 85 348 0 245 -3 261 -55 274 -29 7 -79 -15 -89
-39 -3 -9 -6 -111 -6 -227 l0 -210 -28 -28 c-53 -53 -138 -49 -182 8 -18 23
-20 41 -20 237 0 188 -2 215 -17 233 -22 26 -61 35 -90 20z"/>
<path d="M2305 2701 c-11 -5 -27 -17 -36 -27 -9 -11 -64 -147 -123 -303 -96
-253 -106 -287 -96 -311 11 -26 46 -50 74 -50 27 0 62 39 80 89 l18 51 110 0
109 0 24 -54 c37 -83 79 -105 129 -65 18 14 26 30 26 52 0 40 -204 576 -228
599 -21 21 -61 30 -87 19z m58 -399 c-12 -2 -36 -2 -52 0 l-29 3 26 69 25 69
27 -69 26 -69 -23 -3z"/>
<path d="M2823 2700 c-12 -5 -26 -18 -32 -29 -7 -13 -11 -127 -11 -320 l0
-300 27 -21 c26 -20 37 -21 150 -18 135 3 148 9 159 65 5 26 1 37 -19 57 -23
23 -34 26 -97 26 l-70 0 0 246 0 246 -29 29 c-31 31 -42 33 -78 19z"/>
<path d="M3314 2699 c-41 -20 -44 -47 -44 -350 l0 -290 25 -24 c13 -14 36 -25
50 -25 14 0 37 11 50 25 l25 24 0 299 c0 271 -2 302 -17 320 -22 26 -61 35
-89 21z"/>
<path d="M3604 2687 c-20 -18 -27 -32 -26 -58 1 -47 31 -69 93 -69 l48 0 3
-251 3 -251 28 -24 c34 -29 56 -30 90 -3 l27 20 2 252 3 252 57 5 c67 6 91 25
91 71 0 23 -8 39 -27 56 -26 22 -33 23 -196 23 -163 0 -170 -1 -196 -23z"/>
<path d="M4223 2700 c-26 -10 -43 -39 -43 -72 0 -13 38 -80 85 -150 l85 -128
0 -135 c0 -156 10 -189 61 -200 23 -5 38 -2 58 13 26 19 26 20 29 165 l3 147
86 132 c92 141 102 173 65 210 -23 23 -74 27 -98 7 -7 -6 -38 -49 -66 -95 -29
-46 -56 -84 -59 -84 -4 0 -33 40 -65 89 -51 78 -86 113 -112 110 -4 0 -17 -4
-29 -9z"/>
</g>
</svg>
