<?xml version="1.0" standalone="no"?>
<!DOCTYPE svg PUBLIC "-//W3C//DTD SVG 20010904//EN"
 "http://www.w3.org/TR/2001/REC-SVG-20010904/DTD/svg10.dtd">
<svg version="1.0" xmlns="http://www.w3.org/2000/svg"
 width="512.000000pt" height="512.000000pt" viewBox="0 0 512.000000 512.000000"
 preserveAspectRatio="xMidYMid meet">

<g transform="translate(0.000000,512.000000) scale(0.100000,-0.100000)"
fill="#000000" stroke="none">
<path d="M3404 4911 c-345 -55 -585 -331 -585 -671 -1 -260 107 -522 380 -930
69 -102 70 -105 49 -114 -153 -61 -238 -126 -252 -192 -7 -30 -25 -38 -697
-316 l-690 -285 -77 38 c-117 58 -187 74 -332 74 -148 0 -217 -16 -340 -77
-111 -55 -228 -169 -283 -275 -104 -198 -104 -432 -2 -699 62 -159 198 -404
332 -592 25 -35 43 -65 41 -66 -1 -1 -31 -13 -65 -26 -201 -73 -270 -221 -161
-344 47 -54 124 -96 235 -128 67 -20 101 -23 243 -23 140 1 177 4 243 23 140
40 243 108 268 176 13 36 -100 -26 1284 704 886 468 876 462 908 508 55 79 56
173 3 253 -57 84 -40 81 -826 186 -387 52 -707 96 -712 97 -5 2 229 102 519
222 l528 219 135 7 c159 8 245 27 338 74 228 115 210 315 -37 417 -42 17 -77
33 -79 34 -2 2 28 50 66 107 316 472 424 784 366 1066 -29 144 -115 287 -229
382 -61 50 -189 114 -270 135 -72 19 -231 27 -301 16z m241 -146 c86 -18 194
-71 257 -125 61 -53 121 -143 150 -227 34 -99 32 -272 -5 -395 -35 -116 -100
-261 -171 -383 -57 -96 -326 -507 -350 -532 -9 -10 -49 44 -173 230 -237 356
-318 511 -368 705 -30 112 -33 255 -10 347 72 273 370 443 670 380z m-167
-1862 c23 -18 66 -16 85 5 8 9 38 52 66 94 l50 77 50 -14 c68 -18 133 -50 161
-80 32 -34 18 -62 -48 -98 -157 -85 -466 -91 -628 -12 -70 34 -90 58 -78 92
11 32 88 77 164 96 l55 14 54 -81 c29 -44 60 -87 69 -93z m-329 -152 c17 -8
31 -16 31 -20 0 -4 -250 -110 -556 -236 -305 -126 -557 -232 -559 -235 -5 -9
10 -119 18 -127 4 -3 383 -57 843 -118 752 -101 838 -115 857 -134 27 -27 28
-85 2 -110 -16 -14 -1809 -967 -2041 -1084 l-51 -26 -29 30 c-16 17 -46 40
-66 52 -21 11 -38 23 -38 26 0 3 384 208 853 455 469 247 853 450 854 451 7 4
-23 128 -31 131 -6 2 -312 44 -680 94 -368 49 -669 91 -670 92 -1 2 -12 36
-26 77 -14 42 -47 109 -77 153 l-53 79 33 14 c17 9 309 129 647 269 l614 253
47 -37 c25 -20 60 -42 78 -49z m-1816 -386 c102 -21 192 -70 268 -145 224
-220 208 -553 -46 -985 -74 -127 -346 -535 -356 -535 -9 0 -265 380 -338 502
-138 232 -210 426 -218 597 -10 182 33 299 151 417 139 139 333 193 539 149z
m1139 -595 c287 -39 523 -72 526 -74 2 -3 -11 -12 -30 -22 -60 -31 -1281 -675
-1368 -722 -84 -45 -84 -45 -65 -16 233 355 343 607 362 829 6 71 7 75 30 75
13 0 258 -32 545 -70z m-1378 -1175 c91 -137 121 -137 210 -1 52 81 58 86 83
80 95 -23 188 -73 198 -105 9 -28 -33 -71 -94 -97 -166 -72 -444 -68 -599 9
-103 50 -105 99 -7 148 39 19 115 45 146 50 3 1 32 -37 63 -84z"/>
<path d="M3410 4631 c-143 -46 -234 -134 -280 -272 -30 -89 -25 -218 13 -302
30 -65 110 -155 171 -191 114 -67 269 -74 389 -18 218 102 305 357 196 574
-90 178 -303 269 -489 209z m252 -158 c199 -112 190 -389 -15 -500 -50 -28
-189 -25 -244 5 -97 51 -145 127 -151 238 -5 93 21 157 90 219 91 82 216 96
320 38z"/>
<path d="M1085 2233 c-121 -44 -205 -118 -258 -231 -30 -62 -32 -75 -32 -173
0 -101 1 -108 38 -181 128 -260 467 -317 672 -113 206 207 144 553 -122 678
-58 26 -82 32 -158 34 -67 3 -103 -1 -140 -14z m258 -156 c134 -79 182 -238
113 -375 -82 -161 -293 -201 -430 -81 -62 55 -88 108 -94 192 -6 84 15 143 72
205 66 72 119 93 222 88 56 -2 82 -9 117 -29z"/>
<path d="M2288 4131 c-176 -18 -198 -28 -198 -87 0 -47 33 -67 104 -62 41 2
52 0 43 -8 -7 -6 -275 -199 -597 -429 -322 -231 -600 -430 -618 -443 l-32 -25
20 47 c25 60 25 91 0 116 -25 25 -61 26 -88 3 -25 -22 -172 -345 -172 -378 0
-29 36 -65 64 -65 12 1 104 9 205 19 167 17 186 21 203 41 22 27 23 59 4 86
-11 14 -30 20 -78 24 l-64 5 279 200 c154 110 435 311 623 447 189 136 344
245 344 243 0 -2 -9 -24 -20 -50 -26 -60 -25 -71 5 -100 30 -31 65 -32 92 -2
20 21 157 315 169 361 3 14 -3 32 -16 49 -26 32 -38 33 -272 8z"/>
<path d="M4247 2822 c-22 -25 -21 -75 1 -95 14 -13 38 -17 100 -17 l82 0 0
-175 0 -175 -78 0 c-97 0 -122 -14 -122 -70 0 -56 25 -70 122 -70 l78 0 0
-169 0 -169 -80 -4 c-89 -4 -122 -23 -122 -72 0 -51 26 -66 119 -66 l83 0 0
-175 0 -175 -78 0 c-97 0 -122 -14 -122 -70 0 -56 25 -70 122 -70 l78 0 0
-169 0 -169 -80 -4 c-89 -4 -122 -23 -122 -72 0 -51 26 -66 119 -66 l83 0 0
-175 0 -175 -78 0 c-95 0 -122 -15 -122 -66 0 -21 8 -42 20 -54 18 -18 33 -20
150 -20 117 0 132 2 150 20 20 20 20 33 20 1263 0 1192 -1 1245 -18 1260 -15
14 -42 17 -154 17 -118 0 -137 -2 -151 -18z"/>
</g>
</svg>
