<?xml version="1.0" standalone="no"?>
<!DOCTYPE svg PUBLIC "-//W3C//DTD SVG 20010904//EN"
 "http://www.w3.org/TR/2001/REC-SVG-20010904/DTD/svg10.dtd">
<svg version="1.0" xmlns="http://www.w3.org/2000/svg"
 width="512.000000pt" height="512.000000pt" viewBox="0 0 512.000000 512.000000"
 preserveAspectRatio="xMidYMid meet">

<g transform="translate(0.000000,512.000000) scale(0.100000,-0.100000)"
fill="#000000" stroke="none">
<path d="M3127 4950 c-15 -5 -63 -29 -106 -55 l-79 -46 -123 3 c-116 3 -127 1
-168 -22 -31 -17 -58 -45 -87 -90 -72 -110 -78 -115 -161 -144 -148 -52 -185
-97 -204 -247 -12 -95 -26 -123 -100 -194 -56 -53 -88 -112 -89 -161 0 -17 14
-78 30 -136 l30 -105 -30 -98 c-48 -155 -40 -194 59 -299 38 -40 73 -81 79
-92 6 -12 15 -57 21 -100 15 -122 29 -150 103 -204 l37 -27 -150 -261 c-159
-280 -170 -308 -124 -338 24 -15 34 -14 192 20 92 19 168 34 168 33 1 -1 26
-74 56 -162 48 -142 57 -161 83 -173 25 -13 31 -12 54 5 14 10 98 146 186 301
89 155 165 282 169 282 4 0 38 -18 74 -40 109 -65 179 -64 294 6 31 19 61 34
66 34 5 0 81 -127 169 -282 89 -156 172 -291 186 -301 23 -17 29 -18 54 -6 26
12 35 32 83 174 30 88 55 161 56 162 1 2 77 -13 169 -33 157 -34 168 -35 191
-20 45 30 35 58 -125 338 -129 228 -147 264 -133 273 79 49 107 99 122 225 12
92 9 87 102 186 52 56 69 82 78 121 13 53 10 72 -30 206 l-23 77 26 83 c55
172 49 202 -62 322 -82 89 -80 84 -96 215 -13 109 -57 161 -176 205 -103 39
-111 45 -172 138 -39 59 -66 89 -98 107 -40 24 -50 25 -168 22 l-125 -3 -70
43 c-109 66 -166 80 -238 58z m156 -180 c109 -62 147 -71 253 -59 103 11 126
3 162 -57 73 -125 105 -150 265 -208 26 -10 52 -26 57 -37 6 -10 15 -55 21
-100 13 -110 28 -141 103 -219 96 -100 94 -89 50 -233 -28 -91 -29 -123 -8
-197 44 -152 44 -152 32 -174 -6 -11 -39 -50 -73 -87 -74 -76 -91 -113 -105
-220 -5 -44 -14 -88 -20 -98 -5 -11 -45 -33 -87 -51 -130 -53 -151 -69 -200
-145 -81 -123 -69 -117 -203 -109 -130 7 -141 4 -257 -66 -83 -51 -110 -50
-203 7 -98 60 -127 67 -247 59 -65 -4 -110 -3 -122 4 -11 5 -36 38 -57 71 -64
106 -84 123 -200 169 -75 30 -108 49 -114 64 -4 12 -12 58 -19 104 -13 103
-27 129 -112 220 -80 83 -81 89 -44 205 32 99 32 164 0 257 -37 110 -36 119
43 204 84 90 98 119 115 235 9 58 20 98 32 110 9 11 53 32 98 47 95 32 139 68
199 164 52 85 68 93 173 81 105 -12 152 -2 256 59 46 28 93 50 104 50 12 0 60
-22 108 -50z m-762 -1968 c77 -124 116 -152 221 -161 l67 -6 -107 -187 c-59
-102 -109 -184 -112 -182 -3 3 -21 53 -41 112 -25 75 -43 111 -60 124 -25 19
-27 18 -144 -7 -65 -14 -119 -24 -121 -22 -1 1 49 93 112 204 83 146 119 201
129 197 8 -3 33 -36 56 -72z m1501 -127 c64 -113 115 -205 112 -205 -2 0 -58
12 -124 26 -156 33 -152 35 -203 -120 -21 -64 -40 -116 -42 -116 -4 0 -215
369 -215 375 0 1 31 5 69 7 91 7 128 31 187 121 48 74 83 117 93 117 3 0 59
-92 123 -205z"/>
<path d="M3082 4489 c-251 -33 -467 -188 -577 -414 -58 -121 -77 -205 -77
-335 1 -173 50 -316 157 -458 144 -192 399 -307 640 -288 113 8 186 29 295 83
78 39 110 63 180 133 125 125 189 245 217 410 57 321 -108 645 -404 795 -126
63 -294 92 -431 74z m268 -149 c100 -27 218 -103 295 -189 121 -136 176 -338
142 -519 -70 -368 -436 -590 -794 -481 -159 48 -305 175 -373 323 -21 45 -42
102 -49 128 -16 67 -14 223 4 293 52 205 211 374 413 440 101 33 254 35 362 5z"/>
<path d="M3146 4188 c-10 -6 -45 -66 -77 -134 -33 -68 -63 -124 -67 -124 -35
0 -249 -33 -264 -41 -24 -13 -40 -46 -33 -69 3 -11 50 -61 104 -112 l99 -93
-24 -120 c-13 -66 -24 -130 -24 -142 0 -29 33 -63 61 -63 12 0 75 29 139 65
l118 65 116 -65 c64 -36 124 -65 134 -65 10 0 28 7 40 16 28 19 28 47 1 194
l-22 114 102 97 c108 103 121 129 83 167 -20 20 -35 23 -193 42 l-97 12 -57
123 c-41 89 -64 126 -81 134 -30 13 -34 13 -58 -1z m68 -286 c19 -38 41 -73
49 -80 7 -6 49 -17 93 -23 43 -6 80 -12 82 -13 1 -2 -22 -24 -53 -50 -75 -65
-79 -74 -65 -155 6 -36 14 -74 17 -84 4 -15 -11 -11 -76 25 l-81 43 -81 -43
-82 -42 7 37 c3 21 9 62 12 91 l7 54 -63 63 -63 63 59 7 c115 13 115 13 159
98 22 42 41 77 42 77 2 0 18 -31 37 -68z"/>
<path d="M1915 2106 c-28 -8 -227 -76 -443 -150 -216 -75 -395 -136 -397 -136
-2 0 -36 52 -76 116 -74 118 -102 145 -138 128 -11 -5 -148 -90 -305 -189
-302 -191 -319 -205 -292 -256 7 -13 214 -343 461 -733 294 -463 457 -712 472
-719 16 -7 30 -7 48 1 14 7 152 92 306 189 193 122 284 185 290 202 8 19 3 35
-21 77 l-30 54 30 15 c28 15 61 11 548 -59 284 -41 540 -78 568 -82 64 -8 182
10 248 39 97 41 1530 874 1580 918 127 112 133 304 14 426 -75 77 -190 108
-289 79 -30 -8 -245 -115 -479 -236 -234 -121 -428 -220 -433 -220 -4 0 -23
18 -43 40 -20 22 -50 48 -67 59 -18 11 -318 115 -667 232 l-635 213 -100 3
c-64 2 -118 -2 -150 -11z m834 -340 c338 -113 628 -214 645 -224 37 -21 76
-93 76 -140 0 -48 -35 -108 -79 -138 -77 -51 -75 -51 -576 116 -382 127 -461
151 -480 142 -51 -23 -44 -95 11 -118 19 -8 229 -80 466 -159 315 -106 445
-145 480 -145 148 0 290 129 305 276 l6 54 409 212 c226 117 433 223 462 236
123 54 246 -19 246 -146 0 -58 -15 -95 -52 -129 -18 -17 -635 -376 -1444 -842
-99 -57 -172 -81 -246 -81 -26 0 -298 36 -605 81 l-558 81 -52 -28 c-29 -15
-54 -26 -57 -23 -6 6 -546 861 -558 882 -5 10 -8 21 -6 23 5 5 715 252 778
270 27 9 78 12 130 10 80 -3 121 -15 699 -210z m-1485 -523 c223 -354 406
-647 406 -651 0 -9 -425 -282 -438 -282 -8 0 -818 1277 -824 1298 -4 14 434
294 444 284 3 -4 189 -296 412 -649z"/>
</g>
</svg>
