<?xml version="1.0" standalone="no"?>
<!DOCTYPE svg PUBLIC "-//W3C//DTD SVG 20010904//EN"
 "http://www.w3.org/TR/2001/REC-SVG-20010904/DTD/svg10.dtd">
<svg version="1.0" xmlns="http://www.w3.org/2000/svg"
 width="512.000000pt" height="546.000000pt" viewBox="0 0 512.000000 546.000000"
 preserveAspectRatio="xMidYMid meet">

<g transform="translate(0.000000,546.000000) scale(0.100000,-0.100000)"
fill="#000000" stroke="none">
<path d="M2211 5450 c-320 -41 -606 -178 -837 -402 l-101 -98 -636 0 -637 0 0
-255 0 -255 496 0 496 0 -5 -22 c-2 -13 -15 -70 -27 -128 -33 -149 -33 -408
-1 -560 65 -304 186 -528 405 -745 132 -131 226 -200 381 -275 159 -78 300
-118 518 -145 l47 -6 0 -277 0 -277 85 -85 85 -85 0 -832 0 -833 -90 0 -90 0
0 855 0 856 -82 -3 -83 -3 -3 -937 -2 -938 255 0 255 0 0 958 0 957 -85 85
-85 85 0 237 0 238 23 4 c12 2 63 10 112 16 136 19 276 63 420 135 148 73 270
161 384 276 l78 79 389 2 389 3 3 83 3 82 -330 0 -330 0 44 83 44 82 283 5
283 5 3 83 3 82 -251 0 c-137 0 -250 3 -250 6 0 3 6 32 14 63 8 31 17 68 20
84 l6 27 655 0 655 0 0 250 0 250 -655 0 -655 0 -6 28 c-48 213 -112 367 -220
527 -213 318 -547 541 -924 616 -112 22 -343 32 -449 19z m359 -175 c142 -22
232 -50 365 -114 325 -158 553 -418 666 -763 16 -49 29 -101 29 -114 l0 -24
-660 0 -660 0 0 -250 0 -250 660 0 660 0 0 -21 c0 -12 -9 -53 -20 -90 l-21
-69 -639 0 -640 0 0 -85 0 -85 600 0 601 0 -17 -32 c-9 -18 -33 -57 -52 -85
l-35 -53 -548 0 -549 0 0 -85 0 -85 471 0 472 0 -71 -58 c-240 -195 -540 -293
-856 -279 -203 9 -352 48 -530 140 -622 318 -874 1086 -560 1707 157 312 415
534 750 646 184 61 391 79 584 49z m-1465 -577 l-44 -83 -446 -3 -445 -2 0 85
0 85 490 0 490 0 -45 -82z m2555 -688 l0 -90 -592 2 -593 3 -3 74 c-2 41 -1
80 2 88 4 11 111 13 596 13 l590 0 0 -90z m950 0 l0 -90 -390 0 -390 0 0 90 0
90 390 0 390 0 0 -90z m340 0 l0 -90 -85 0 -85 0 0 90 0 90 85 0 85 0 0 -90z"/>
<path d="M2280 5113 c-381 -39 -718 -269 -884 -602 -71 -141 -106 -265 -121
-428 l-7 -73 84 0 84 0 12 102 c26 218 115 400 272 558 158 157 340 246 558
272 l102 12 0 83 0 83 -32 -2 c-18 0 -49 -3 -68 -5z"/>
<path d="M3660 4865 l0 -85 475 0 475 0 0 -170 0 -170 85 0 85 0 0 255 0 255
-560 0 -560 0 0 -85z"/>
<path d="M3930 4525 l0 -85 80 0 80 0 0 85 0 85 -80 0 -80 0 0 -85z"/>
<path d="M4270 4525 l0 -85 85 0 86 0 -3 83 -3 82 -82 3 -83 3 0 -86z"/>
<path d="M0 2300 l0 -1960 980 0 980 0 0 85 0 85 -895 0 -895 0 0 1875 0 1875
-85 0 -85 0 0 -1960z"/>
<path d="M4610 2045 l0 -1535 -895 0 -895 0 0 -85 0 -85 980 0 980 0 0 1620 0
1620 -85 0 -85 0 0 -1535z"/>
<path d="M430 2135 l0 -85 680 0 680 0 0 85 0 85 -680 0 -680 0 0 -85z"/>
<path d="M430 1795 l0 -85 380 0 380 0 0 85 0 85 -380 0 -380 0 0 -85z"/>
<path d="M430 1450 l0 -80 680 0 680 0 0 80 0 80 -680 0 -680 0 0 -80z"/>
</g>
</svg>
