<?xml version="1.0" standalone="no"?>
<!DOCTYPE svg PUBLIC "-//W3C//DTD SVG 20010904//EN"
 "http://www.w3.org/TR/2001/REC-SVG-20010904/DTD/svg10.dtd">
<svg version="1.0" xmlns="http://www.w3.org/2000/svg"
 width="512.000000pt" height="512.000000pt" viewBox="0 0 512.000000 512.000000"
 preserveAspectRatio="xMidYMid meet">

<g transform="translate(0.000000,512.000000) scale(0.100000,-0.100000)"
fill="#000000" stroke="none">
<path d="M3690 4464 c-174 -37 -322 -164 -381 -325 l-21 -57 -58 29 c-129 64
-326 94 -463 70 l-66 -11 -63 50 c-123 100 -347 188 -416 164 -38 -13 -57 -57
-42 -94 12 -30 29 -39 125 -65 89 -25 201 -87 279 -156 61 -53 73 -60 100 -55
131 23 190 28 262 21 78 -7 79 -8 54 -24 -48 -31 -119 -103 -151 -152 -46 -73
-69 -156 -69 -256 l0 -85 -65 -70 c-161 -174 -245 -363 -245 -548 1 -150 53
-246 164 -300 63 -31 69 -32 158 -27 51 3 103 8 116 12 19 6 22 4 22 -21 0
-85 71 -268 148 -380 78 -114 231 -244 347 -294 25 -11 45 -22 45 -25 0 -20
-82 -124 -141 -179 -160 -148 -377 -207 -594 -161 -38 8 -73 15 -77 15 -4 0
-39 -28 -77 -63 -132 -119 -282 -177 -455 -177 -166 0 -305 51 -430 157 -109
92 -94 86 -180 69 -241 -50 -477 26 -640 206 -87 96 -166 274 -166 374 0 54
-16 80 -74 119 -123 81 -233 240 -271 390 -19 77 -19 243 0 320 38 149 135
292 262 382 67 48 83 72 83 127 0 55 28 148 72 235 49 99 150 208 243 264 128
76 306 112 440 88 33 -5 76 -13 95 -17 33 -5 42 -1 115 61 50 42 115 84 172
112 123 59 146 92 102 147 -15 19 -29 26 -57 26 -49 0 -201 -76 -278 -139
l-62 -50 -68 11 c-90 14 -240 4 -332 -22 -118 -33 -269 -117 -335 -188 l-28
-29 -61 18 c-197 62 -411 8 -560 -142 -218 -217 -222 -567 -8 -789 44 -46 59
-68 55 -81 -4 -11 -10 -55 -14 -100 -17 -162 23 -342 106 -484 45 -78 157
-205 216 -245 28 -19 34 -31 48 -103 21 -104 48 -176 99 -260 l40 -66 0 -403
c0 -233 4 -418 10 -438 51 -185 278 -267 426 -153 l46 34 22 -20 c12 -11 44
-30 71 -43 104 -47 238 -18 315 69 63 72 70 107 70 341 0 112 3 202 8 200 220
-110 284 -128 446 -128 161 0 305 39 426 115 l55 34 5 -227 c5 -212 7 -230 28
-274 46 -94 143 -152 252 -151 71 0 120 17 169 59 l31 26 31 -26 c49 -42 98
-59 170 -59 117 -2 227 74 263 181 14 38 16 113 16 474 l0 429 25 48 24 48 43
-8 c157 -30 464 24 521 92 37 45 7 119 -47 119 -14 0 -67 -14 -118 -32 -85
-29 -104 -32 -218 -32 -143 0 -213 15 -326 70 -177 87 -307 243 -375 449 -21
65 -23 91 -27 378 -4 297 -3 309 15 303 107 -32 226 -33 310 -2 41 14 44 14
70 -8 42 -34 111 -72 173 -92 83 -28 245 -25 325 6 63 24 127 60 160 91 19 17
23 17 65 2 83 -29 223 -28 303 3 17 6 18 -8 15 -312 l-3 -319 -29 -83 c-17
-49 -54 -121 -92 -179 -35 -54 -64 -106 -64 -116 0 -29 45 -67 80 -67 79 0
212 233 251 438 11 58 14 63 33 57 12 -3 57 -9 102 -12 111 -8 171 12 239 81
58 57 82 115 92 212 17 178 -91 427 -256 588 l-60 60 6 57 c16 160 -71 340
-208 429 -75 48 -140 70 -232 79 -64 5 -71 8 -77 31 -31 114 -148 253 -261
308 -67 34 -180 62 -239 61 -19 0 -64 -7 -100 -15z m237 -166 c65 -24 124 -71
169 -133 34 -49 64 -128 64 -171 0 -12 9 -32 19 -45 18 -23 26 -24 133 -24
103 0 118 -3 163 -27 116 -61 179 -162 179 -288 0 -129 -66 -233 -184 -289
-80 -38 -191 -37 -274 2 -71 33 -83 30 -154 -34 -72 -66 -144 -92 -252 -93
-102 -1 -166 24 -247 97 -69 61 -81 63 -150 31 -164 -75 -349 -15 -428 141
-26 52 -30 69 -30 144 0 74 4 94 28 143 31 63 86 116 156 150 40 20 62 23 159
23 127 0 136 5 148 74 39 245 271 384 501 299z m-523 -3434 c-36 -75 -140 -90
-200 -30 l-34 34 0 269 0 270 73 36 c39 20 95 54 122 75 l50 38 3 -329 c2
-288 0 -333 -14 -363z m-2476 624 c23 -16 77 -45 118 -64 l76 -34 -4 -253 c-3
-275 -5 -285 -63 -323 -57 -37 -150 -10 -180 52 -20 43 -23 670 -2 658 6 -4
31 -20 55 -36z m592 -358 c0 -261 -3 -280 -55 -314 -34 -23 -106 -23 -140 0
-51 34 -55 53 -55 308 l0 235 108 4 c59 1 115 4 125 5 16 2 17 -15 17 -238z
m1490 -12 l0 -246 -26 -31 c-57 -68 -170 -56 -208 23 -13 28 -16 72 -16 268
l0 233 125 0 125 0 0 -247z"/>
<path d="M1344 3557 c-35 -31 -37 -77 -4 -113 14 -13 54 -39 89 -57 57 -28 76
-32 141 -32 57 1 88 6 128 24 l52 23 53 -23 c39 -18 70 -23 127 -24 65 0 84 4
141 32 35 18 75 44 89 57 33 36 31 82 -4 113 -35 30 -54 29 -102 -6 -82 -60
-163 -61 -246 0 -51 36 -64 36 -114 0 -59 -43 -114 -57 -166 -42 -24 7 -61 26
-82 42 -48 35 -67 36 -102 6z"/>
<path d="M3402 2877 c-27 -28 -31 -120 -7 -154 20 -29 59 -37 94 -19 35 18 41
33 41 97 0 40 -5 55 -25 74 -31 32 -74 33 -103 2z"/>
<path d="M4130 2882 c-18 -14 -24 -32 -28 -75 -4 -52 -2 -58 26 -87 36 -35 60
-38 96 -9 23 18 26 27 26 85 0 51 -4 68 -20 84 -25 25 -71 26 -100 2z"/>
<path d="M864 2757 c-34 -30 -35 -79 -2 -114 34 -36 136 -82 199 -89 117 -13
264 58 284 138 6 22 1 33 -23 58 -38 37 -58 38 -108 1 -85 -62 -161 -62 -246
-1 -49 36 -68 37 -104 7z"/>
<path d="M1766 2179 c-26 -20 -34 -57 -20 -93 11 -28 103 -88 165 -107 34 -11
82 -19 108 -19 53 0 143 24 180 47 21 14 28 13 85 -13 52 -25 74 -29 151 -29
82 0 97 3 157 33 65 32 128 89 128 117 0 41 -43 85 -83 85 -7 0 -34 -16 -61
-35 -94 -67 -178 -70 -267 -9 -71 47 -88 50 -129 20 -112 -82 -208 -82 -319
-1 -41 30 -60 31 -95 4z"/>
</g>
</svg>
