<?xml version="1.0" standalone="no"?>
<!DOCTYPE svg PUBLIC "-//W3C//DTD SVG 20010904//EN"
 "http://www.w3.org/TR/2001/REC-SVG-20010904/DTD/svg10.dtd">
<svg version="1.0" xmlns="http://www.w3.org/2000/svg"
 width="541.000000pt" height="360.000000pt" viewBox="0 0 541.000000 360.000000"
 preserveAspectRatio="xMidYMid meet">

<g transform="translate(0.000000,360.000000) scale(0.100000,-0.100000)"
fill="#000000" stroke="none">
<path d="M5317 3393 c-15 -4 -17 -13 -11 -83 9 -106 4 -120 -53 -150 -26 -13
-65 -39 -87 -58 -21 -19 -53 -40 -71 -48 -60 -25 -89 -130 -45 -166 25 -20 89
-23 263 -11 l97 6 0 254 0 253 -24 0 c-13 0 -30 2 -38 4 -7 2 -21 2 -31 -1z"/>
<path d="M4805 3015 c-20 -14 -40 -25 -45 -25 -6 0 -10 -4 -10 -10 0 -5 7 -10
16 -10 8 0 12 -4 9 -10 -14 -23 52 -7 84 20 19 16 33 31 30 32 -43 27 -47 27
-84 3z m22 -11 c-3 -3 -12 -4 -19 -1 -8 3 -5 6 6 6 11 1 17 -2 13 -5z"/>
<path d="M2431 2950 c-29 -5 -58 -13 -64 -19 -16 -16 -123 -13 -157 4 -27 14
-30 14 -49 -6 -11 -12 -23 -35 -26 -50 -4 -16 -10 -29 -14 -29 -4 0 -23 -14
-42 -31 l-34 -32 40 6 c22 4 58 15 80 26 40 19 52 17 95 -15 26 -20 97 -27
137 -13 21 7 55 26 77 43 36 29 43 31 122 31 64 0 87 -4 95 -15 14 -22 3 -66
-27 -106 -15 -19 -24 -37 -21 -40 7 -8 154 14 177 26 10 5 29 10 43 10 30 0
39 9 24 24 -30 30 -151 106 -168 106 -11 0 -21 0 -24 0 -12 1 -101 42 -113 53
-14 11 -82 38 -92 36 -3 -1 -29 -5 -59 -9z"/>
<path d="M3043 2888 c-33 -43 -12 -80 33 -59 14 6 35 11 47 11 17 0 19 2 8 9
-12 7 -12 13 -3 24 7 7 9 17 5 20 -11 12 -80 7 -90 -5z"/>
<path d="M3289 2845 c-19 -14 -50 -27 -67 -28 -21 -1 -34 -8 -38 -19 -3 -10
-14 -18 -26 -18 -11 0 -18 -5 -16 -12 7 -19 95 -25 210 -13 147 14 155 23 65
73 -77 44 -88 45 -128 17z"/>
<path d="M1782 2830 c22 -17 26 -27 22 -49 -4 -18 0 -32 10 -40 9 -8 16 -22
16 -31 0 -12 10 -21 31 -25 22 -5 29 -11 25 -22 -4 -11 -2 -13 9 -9 8 3 15 2
15 -3 0 -4 11 -13 25 -19 14 -6 25 -11 25 -9 0 1 4 17 9 35 7 24 6 35 -5 46
-8 8 -23 34 -33 58 -26 60 -53 79 -120 85 l-56 4 27 -21z"/>
<path d="M2513 2816 c-16 -14 -38 -43 -48 -65 -10 -23 -22 -41 -28 -41 -10 0
0 -49 14 -66 5 -6 21 -9 35 -6 19 3 22 7 12 13 -10 7 -9 9 5 9 9 0 17 4 17 9
0 5 11 12 25 15 28 7 44 31 47 75 1 17 6 31 10 31 4 0 8 7 8 15 0 8 5 15 10
15 6 0 10 5 10 10 0 6 -20 10 -44 10 -33 0 -52 -7 -73 -24z"/>
<path d="M3600 2800 l-35 -7 43 -2 c27 0 41 3 37 9 -3 6 -7 9 -8 9 -1 -1 -18
-5 -37 -9z"/>
<path d="M1698 2795 c-3 -3 -3 -17 0 -30 4 -22 7 -24 20 -13 14 12 14 10 2
-12 -12 -22 -12 -24 2 -12 14 11 19 9 37 -14 12 -15 21 -23 21 -19 0 4 -10 20
-22 35 -13 16 -30 38 -39 49 -9 12 -18 19 -21 16z"/>
<path d="M1317 2766 c-21 -13 -45 -33 -53 -45 -19 -27 -66 -51 -99 -51 -20 0
-25 -5 -25 -24 0 -32 15 -36 123 -35 210 1 285 21 256 67 -7 11 -23 25 -35 31
-12 5 -37 23 -55 39 -48 42 -68 45 -112 18z"/>
<path d="M5288 2706 c-16 -24 -28 -47 -28 -51 0 -4 -8 -14 -17 -21 -15 -10
-16 -15 -5 -25 18 -19 15 -27 -10 -31 -23 -3 -25 -9 -13 -39 5 -13 1 -15 -19
-12 -29 6 -35 23 -8 24 14 0 14 2 -3 9 -17 7 -17 9 -2 9 17 1 25 31 8 31 -12
0 -12 91 0 106 7 9 5 14 -9 18 -26 9 -49 -2 -55 -25 -3 -10 -13 -19 -24 -19
-10 0 -36 -18 -57 -40 -33 -35 -41 -39 -55 -27 -14 11 -43 13 -99 8 -7 -1 -11
-13 -10 -33 3 -31 1 -32 -42 -40 -66 -11 -78 -17 -61 -28 8 -4 24 -5 36 0 12
5 36 2 60 -6 22 -7 42 -14 44 -14 2 0 -1 -6 -7 -13 -14 -17 24 -16 56 2 12 6
27 9 33 5 6 -3 30 1 55 11 24 9 49 13 56 9 7 -5 22 -10 33 -12 11 -2 27 -5 35
-6 8 -2 23 1 34 6 23 13 67 -8 59 -28 -7 -19 16 -26 52 -16 20 6 29 14 27 25
-2 10 2 17 8 17 5 0 10 -7 10 -15 0 -8 9 -15 20 -15 19 0 20 6 19 95 -1 88 -9
116 -23 80 -12 -32 -25 -13 -32 45 -8 74 -27 79 -66 16z"/>
<path d="M160 2703 c-30 -1 -79 -5 -107 -9 l-53 -5 0 -58 0 -58 63 -11 c37 -6
79 -8 104 -3 24 5 54 6 68 4 37 -8 69 3 98 33 34 34 34 58 1 89 -28 26 -30 26
-174 18z"/>
<path d="M602 2674 c-38 -44 -45 -63 -30 -81 10 -13 30 -14 123 -9 129 8 211
15 243 22 34 7 26 33 -15 50 -21 8 -45 19 -55 24 -9 5 -67 12 -130 15 -113 5
-113 5 -136 -21z"/>
<path d="M1987 2646 c-2 -6 0 -21 6 -33 7 -17 14 -20 26 -13 18 9 46 -2 46
-20 0 -5 3 -10 8 -10 4 0 10 0 13 0 3 0 -8 17 -25 39 -32 40 -67 58 -74 37z"/>
<path d="M4837 2647 c-3 -9 1 -18 10 -21 23 -9 29 2 11 20 -13 14 -16 14 -21
1z"/>
<path d="M2372 2608 c-17 -23 -30 -44 -27 -47 3 -2 13 5 21 18 10 13 22 20 31
16 18 -6 43 23 36 42 -9 23 -28 14 -61 -29z"/>
<path d="M4800 2610 c0 -5 5 -10 11 -10 5 0 7 5 4 10 -3 6 -8 10 -11 10 -2 0
-4 -4 -4 -10z"/>
<path d="M4640 2580 c0 -5 5 -10 11 -10 5 0 7 5 4 10 -3 6 -8 10 -11 10 -2 0
-4 -4 -4 -10z"/>
<path d="M4608 2555 c-7 -9 -22 -27 -34 -38 l-21 -22 23 -44 24 -43 10 26 c10
28 29 33 48 14 6 -6 15 -9 19 -5 3 4 -2 13 -11 20 -17 13 -17 15 9 36 l28 21
-22 21 c-12 12 -25 18 -28 15 -3 -3 -12 -1 -19 5 -9 7 -16 5 -26 -6z"/>
<path d="M4300 2530 c0 -11 4 -20 9 -20 5 0 11 9 14 20 3 13 0 20 -9 20 -8 0
-14 -9 -14 -20z"/>
<path d="M4300 2470 c11 -21 40 -28 40 -10 0 6 -7 10 -15 10 -8 0 -15 5 -15
10 0 6 -5 10 -10 10 -7 0 -7 -6 0 -20z"/>
<path d="M4717 2472 c3 -7 9 -10 12 -5 3 4 10 11 15 15 4 4 -1 6 -12 5 -12 -1
-18 -6 -15 -15z"/>
<path d="M5114 2465 c-14 -29 -7 -39 13 -20 9 9 11 20 6 29 -6 12 -10 10 -19
-9z"/>
<path d="M4408 2454 c-12 -12 6 -46 29 -55 35 -13 43 -11 43 11 0 11 -7 20
-15 20 -9 0 -18 7 -21 15 -6 15 -26 20 -36 9z"/>
<path d="M0 2405 c0 -22 4 -25 40 -25 36 0 40 3 40 25 0 23 -4 25 -40 25 -36
0 -40 -2 -40 -25z"/>
<path d="M4058 2419 c-27 -15 -11 -39 22 -33 15 4 31 1 34 -5 11 -17 26 -13
26 7 0 37 -44 54 -82 31z"/>
<path d="M2160 2400 c0 -6 16 -25 35 -42 33 -28 34 -31 18 -44 -10 -7 -28 -14
-40 -14 -32 0 -29 -17 5 -24 60 -13 68 -13 97 -1 l30 12 -26 7 c-21 6 -25 12
-21 32 2 14 15 32 28 41 39 25 28 32 -41 29 -36 -2 -65 0 -65 5 0 5 -4 9 -10
9 -5 0 -10 -5 -10 -10z"/>
<path d="M4765 2400 c-8 -13 5 -13 25 0 13 8 13 10 -2 10 -9 0 -20 -4 -23 -10z"/>
<path d="M5379 2366 c-11 -22 -17 -24 -80 -23 -57 0 -72 -3 -84 -19 -20 -27
-18 -41 6 -47 17 -5 20 -12 17 -44 -3 -35 -5 -38 -33 -38 -22 0 -31 5 -34 20
-4 24 -21 36 -41 30 -10 -3 -17 2 -18 13 -1 9 -3 29 -5 45 -4 33 -27 59 -34
39 -8 -20 -54 -72 -64 -72 -6 0 -20 10 -32 23 -29 30 -68 57 -84 57 -15 0 -28
-24 -38 -68 -7 -33 -7 -33 30 -30 27 2 41 -3 51 -17 12 -16 16 -17 23 -6 6 9
11 10 15 2 4 -6 2 -11 -4 -11 -10 0 -9 -20 5 -97 7 -39 3 -40 -30 -11 -28 24
-32 38 -12 38 8 0 14 6 14 13 0 10 -14 12 -53 9 -42 -4 -60 0 -91 18 -21 13
-43 29 -48 36 -6 6 -24 14 -40 16 -26 3 -30 0 -33 -25 -7 -59 -112 -70 -112
-12 0 16 -7 24 -25 27 -32 7 -46 -11 -43 -53 l3 -34 -57 -5 c-34 -3 -60 -1
-63 5 -3 5 -3 -1 -1 -14 l5 -23 -25 23 c-26 24 -34 18 -9 -7 17 -17 21 -39 5
-29 -16 10 -12 -5 10 -32 11 -14 20 -32 20 -39 0 -8 6 -13 13 -11 6 1 11 -6 9
-15 -2 -11 3 -18 14 -18 11 0 15 -6 11 -20 -3 -11 -1 -20 4 -20 4 0 6 -7 3
-15 -4 -8 -1 -15 6 -15 7 0 10 8 7 20 -3 10 0 21 7 24 7 3 7 5 -1 5 -7 1 -13
5 -13 10 0 16 37 0 61 -25 12 -13 19 -24 14 -24 -4 0 0 -9 10 -20 17 -18 17
-20 1 -26 -10 -4 -28 -1 -42 6 -18 10 -21 16 -13 27 7 8 8 13 1 13 -5 0 -15
-6 -22 -14 -9 -12 -8 -39 6 -123 9 -59 19 -128 22 -153 2 -25 8 -50 13 -56 5
-6 5 -51 0 -100 -4 -49 -6 -104 -5 -121 1 -18 -2 -33 -7 -33 -6 0 -5 -8 1 -20
6 -11 9 -24 6 -29 -3 -4 -1 -23 4 -41 6 -20 6 -39 0 -50 -6 -11 -5 -21 2 -28
9 -9 7 -15 -7 -25 -14 -11 -15 -16 -4 -22 21 -13 59 -15 59 -3 0 6 9 3 20 -7
11 -10 38 -19 60 -21 22 -1 47 -10 56 -18 8 -9 12 -16 8 -16 -4 0 2 -9 14 -20
28 -27 50 -25 61 4 10 24 29 36 61 36 9 0 23 7 30 15 16 19 59 19 66 0 10 -26
32 -16 45 20 14 39 16 39 55 25 19 -8 43 -7 81 1 43 10 57 18 69 40 8 16 14
34 14 41 0 24 37 17 71 -13 36 -32 79 -38 99 -14 7 8 21 15 31 15 18 0 19 13
19 270 0 228 -2 272 -15 276 -8 3 -17 14 -20 25 -6 17 -8 18 -35 4 -16 -8 -36
-15 -45 -15 -9 0 -34 -18 -56 -41 -38 -39 -39 -40 -39 -15 0 13 5 28 10 31 6
3 10 15 10 25 0 23 33 35 59 21 29 -16 33 -14 19 10 -11 17 -10 22 5 30 23 13
22 29 -3 29 -11 0 -20 -4 -20 -10 0 -12 -40 -13 -59 -1 -22 14 -5 60 24 67 32
8 52 31 38 45 -22 22 17 109 47 109 11 0 29 9 40 20 11 11 25 20 30 20 6 0 10
57 10 150 0 149 -7 179 -31 126z m-406 -82 c3 -3 3 -13 0 -21 -5 -12 -7 -12
-14 -1 -15 23 -4 40 14 22z m-390 -161 c3 -5 8 -23 12 -41 8 -37 -8 -48 -50
-38 -28 7 -33 36 -10 59 11 12 12 17 2 20 -6 3 0 6 15 6 15 1 29 -2 31 -6z
m652 -4 c8 -12 -23 -49 -41 -49 -18 0 -47 31 -37 41 4 4 19 9 33 12 14 2 28 5
32 6 4 0 10 -4 13 -10z m45 -4 c0 -8 -7 -15 -16 -15 -14 0 -14 3 -4 15 7 8 14
15 16 15 2 0 4 -7 4 -15z m-566 -124 c10 -15 -13 -63 -27 -58 -17 5 -21 35 -7
52 14 17 26 19 34 6z m172 -97 c-6 -12 -14 -20 -18 -18 -5 3 -4 14 2 24 5 10
7 27 4 37 -6 17 -6 17 8 -1 11 -14 12 -24 4 -42z m90 38 c19 -16 44 -53 44
-66 0 -7 -74 -76 -81 -76 -12 0 -18 43 -9 60 5 9 10 36 11 58 3 47 5 49 35 24z
m134 -37 c0 -8 -7 -15 -15 -15 -16 0 -20 12 -8 23 11 12 23 8 23 -8z m4 -67
c10 -38 7 -56 -11 -63 -12 -4 -24 1 -35 15 -23 28 -23 57 0 63 33 9 40 7 46
-15z m-227 -144 c10 -26 -22 -68 -58 -77 -22 -6 -35 -5 -37 2 -2 6 -13 11 -24
11 -30 0 -17 21 33 52 51 31 77 35 86 12z"/>
<path d="M1980 2319 c0 -5 5 -7 10 -4 6 3 10 8 10 11 0 2 -4 4 -10 4 -5 0 -10
-5 -10 -11z"/>
<path d="M134 2256 c0 -16 8 -28 19 -31 9 -3 27 -8 38 -11 21 -6 22 -6 3 12
-10 11 -29 27 -40 37 -22 18 -22 18 -20 -7z"/>
<path d="M2380 2276 c0 -11 30 -39 36 -34 2 3 -5 13 -16 23 -11 10 -20 15 -20
11z"/>
<path d="M2313 2249 c-13 -5 -23 -13 -23 -18 0 -11 -26 -22 -67 -27 -23 -3
-39 3 -61 21 -33 28 -79 34 -79 10 0 -8 4 -12 9 -9 16 10 20 -26 4 -42 -9 -8
-13 -20 -10 -26 4 -7 2 -8 -5 -4 -6 4 -9 11 -6 16 3 5 1 11 -5 15 -6 4 -9 -4
-8 -19 1 -13 6 -22 10 -20 4 3 8 -1 9 -8 0 -7 5 -3 11 9 10 21 36 38 45 30 2
-2 0 -12 -3 -21 -5 -14 -9 -15 -15 -4 -6 9 -8 5 -7 -12 2 -19 -2 -25 -16 -25
-11 0 -21 -6 -24 -13 -2 -7 2 -10 12 -6 24 9 20 1 -19 -40 -39 -42 -46 -63
-15 -46 11 6 18 14 16 19 -5 8 29 41 43 41 19 0 19 -28 0 -33 -28 -7 -23 -25
6 -22 19 3 25 -1 25 -17 0 -17 3 -18 14 -8 12 9 15 8 13 -9 0 -11 -5 -17 -9
-15 -4 3 -17 -2 -29 -10 -21 -14 -20 -15 17 -25 22 -6 45 -11 52 -11 7 0 10
-5 6 -11 -3 -6 -1 -15 6 -19 8 -5 5 -9 -10 -13 -12 -3 -19 -3 -16 0 3 3 1 14
-4 24 -8 14 -19 17 -48 15 -20 -2 -43 1 -49 6 -10 8 -13 6 -13 -6 0 -10 4 -15
9 -11 6 3 14 -3 20 -12 8 -14 12 -16 22 -5 20 19 35 15 47 -13 11 -24 11 -25
-28 -25 -40 0 -55 -15 -22 -23 12 -3 8 -6 -13 -11 -65 -16 -71 -25 -15 -23 45
2 55 -1 58 -15 3 -14 -3 -18 -25 -18 -16 0 -33 -4 -38 -9 -6 -5 -21 -12 -35
-15 -14 -2 8 -3 48 -2 74 3 83 -1 57 -27 -11 -12 -12 -17 -2 -21 6 -3 3 -4 -8
-1 -14 3 -27 -3 -39 -20 -10 -14 -24 -25 -31 -25 -7 0 -15 -12 -18 -27 l-5
-28 15 23 c9 12 23 22 32 22 9 0 22 5 28 11 6 6 16 10 23 7 6 -2 -4 -20 -25
-41 -20 -20 -35 -37 -33 -37 2 0 19 4 38 10 l34 10 -35 -30 c-18 -16 -29 -29
-22 -30 6 0 14 4 18 9 4 8 45 12 45 4 0 -1 -16 -10 -36 -19 -25 -12 -32 -19
-23 -25 8 -4 18 -4 24 1 23 18 87 40 82 27 -2 -6 -10 -11 -16 -9 -6 1 -11 -6
-11 -17 0 -10 -7 -24 -15 -31 -10 -8 -12 -17 -5 -29 13 -26 -10 -99 -30 -93
-8 3 -12 1 -8 -3 4 -4 2 -19 -3 -33 -8 -20 -7 -29 4 -37 8 -5 15 -13 16 -17 6
-26 15 -38 27 -38 8 0 14 -6 14 -13 0 -7 9 -19 20 -27 11 -8 20 -19 20 -24 0
-15 43 -47 57 -42 7 3 13 -1 13 -10 0 -9 6 -14 13 -11 6 2 12 18 12 35 0 39 3
39 32 5 13 -14 23 -23 23 -19 0 4 6 1 14 -6 8 -7 22 -20 32 -29 31 -27 48 -52
70 -102 27 -63 33 -46 30 82 -2 55 0 101 4 101 4 0 13 -7 20 -15 7 -9 15 -13
18 -11 2 3 11 -2 20 -10 20 -21 41 -2 22 21 -7 8 -10 19 -6 22 4 4 11 1 16 -7
7 -11 10 -8 10 13 0 15 4 27 9 27 16 0 20 -40 5 -54 -17 -18 -18 -67 -1 -88
14 -18 57 -34 57 -20 0 5 7 9 15 9 8 0 15 -6 15 -14 0 -18 17 -16 24 3 5 12
15 14 52 8 35 -5 45 -4 40 5 -4 6 -9 25 -11 41 -3 25 -2 28 9 17 8 -6 11 -19
9 -27 -4 -13 -4 -13 6 0 14 20 14 26 -4 44 -15 14 -10 50 5 41 5 -3 12 0 16 6
5 8 -1 10 -19 7 -20 -4 -27 0 -31 16 -6 24 -4 27 23 29 15 1 21 8 21 24 0 13
5 23 10 23 6 0 10 7 10 17 0 13 -4 11 -20 -7 -11 -13 -20 -28 -20 -34 0 -6 -7
-3 -16 6 -13 13 -14 19 -2 37 7 11 19 21 26 21 7 0 10 5 7 10 -4 6 -2 17 5 25
7 9 8 15 0 20 -14 9 -30 -3 -30 -23 -1 -21 -23 -52 -39 -52 -17 0 -13 -28 7
-39 9 -6 11 -11 5 -11 -13 0 -13 -34 0 -46 11 -11 8 -44 -4 -44 -6 0 -8 7 -5
16 5 14 4 15 -9 4 -9 -7 -13 -20 -10 -29 5 -12 4 -13 -6 -4 -9 9 -9 17 3 36
15 21 14 25 -2 47 l-18 24 4 -33 c3 -23 0 -31 -9 -28 -16 6 -11 49 8 63 17 12
21 64 5 64 -5 0 -7 -8 -4 -17 5 -15 3 -15 -10 1 -9 11 -16 15 -16 10 0 -6 6
-16 12 -22 18 -18 -9 -34 -33 -21 -14 7 -16 5 -12 -12 6 -21 5 -21 -15 -4 -19
17 -20 45 -1 45 5 0 9 10 9 23 -1 21 -1 21 -18 -5 -9 -15 -21 -27 -27 -26 -5
0 -18 -2 -27 -6 -13 -6 -15 -12 -8 -26 11 -20 -8 -34 -29 -21 -18 11 5 65 24
57 10 -3 15 1 15 13 0 12 12 22 39 29 51 16 53 15 46 -7 -3 -11 -1 -22 5 -26
6 -4 10 4 10 19 0 13 3 32 7 41 5 14 2 16 -18 10 -13 -5 -31 -8 -39 -9 -8 -1
-19 -5 -23 -11 -5 -6 -6 -1 -4 10 2 11 9 19 15 18 7 -2 12 2 12 7 0 7 16 9 41
6 29 -4 39 -2 36 7 -2 7 -11 11 -21 9 -9 -2 -16 2 -16 7 0 6 -6 8 -14 5 -15
-6 -50 42 -40 57 3 6 12 8 20 5 8 -3 14 -1 14 5 0 6 4 7 10 4 6 -3 7 1 3 10
-4 11 -8 13 -13 5 -5 -8 -11 -6 -20 5 -10 12 -10 18 0 30 11 13 10 14 -4 9 -9
-3 -16 -17 -16 -30 0 -13 -4 -24 -10 -24 -5 0 -10 5 -10 10 0 20 -24 36 -46
32 -36 -7 -66 42 -63 105 2 29 0 56 -4 60 -4 3 -7 -5 -7 -19 0 -28 -27 -45
-43 -29 -7 7 -6 15 3 26 20 24 3 31 -18 7 l-19 -21 -11 36 c-10 33 -9 40 8 58
11 12 20 25 20 30 0 4 -14 -8 -31 -28 -17 -21 -35 -37 -40 -37 -8 0 8 24 39
55 6 8 12 23 12 34 0 11 11 32 24 46 27 29 41 89 19 81 -11 -4 -11 -1 -3 14
16 30 33 24 28 -10 -3 -20 0 -30 9 -30 7 0 13 -10 14 -22 0 -13 3 -17 6 -10 3
7 1 20 -3 30 -14 32 -10 75 8 80 15 3 14 7 -8 27 -27 26 -32 40 -8 27 18 -10
84 5 84 20 0 11 -11 10 -50 -3 -30 -11 -34 -10 -57 20 -13 17 -30 31 -38 31
-7 0 -16 6 -18 13 -3 7 -6 5 -6 -5 -1 -10 8 -26 20 -37 29 -26 50 -69 38 -76
-5 -4 -9 -2 -9 4 0 6 -12 14 -26 17 -17 4 -22 9 -14 14 9 6 9 13 1 29 -7 11
-15 21 -20 21 -5 0 -6 11 -3 25 3 16 0 25 -8 25 -7 0 -10 -6 -7 -13 3 -8 -3
-13 -14 -13 -23 0 -24 9 -4 29 8 8 11 17 8 21 -4 3 -1 6 5 6 21 0 27 -5 24
-17 -2 -7 4 -13 13 -13 18 0 19 8 3 43 -14 29 -48 37 -48 12 0 -8 -5 -15 -11
-15 -6 0 -8 8 -4 19 8 27 -41 62 -72 50z m21 -23 c-3 -8 -1 -17 5 -21 6 -3 11
2 12 12 0 12 5 8 14 -12 8 -18 10 -34 4 -41 -5 -6 -6 -14 -3 -17 4 -3 -2 -6
-12 -5 -11 0 -27 -3 -36 -7 -10 -4 -18 -3 -19 1 0 5 -2 17 -4 27 -2 9 1 17 7
17 6 0 8 -7 4 -15 -3 -8 -1 -15 4 -15 6 0 10 7 10 16 0 9 5 12 11 8 7 -4 10
-1 7 7 -3 8 -11 13 -17 12 -12 -3 -15 29 -4 40 11 12 23 7 17 -7z m-111 -86
l7 -35 -20 24 c-11 13 -20 28 -20 35 0 6 5 4 10 -4 8 -13 10 -12 10 4 0 28 6
17 13 -24z m54 -2 c-3 -8 -6 -5 -6 6 -1 11 2 17 5 13 3 -3 4 -12 1 -19z m-105
-19 c7 -21 7 -22 -5 -7 -8 10 -17 15 -20 11 -4 -3 -7 2 -7 11 0 25 21 15 32
-15z m78 16 c0 -8 -2 -15 -4 -15 -2 0 -6 7 -10 15 -3 8 -1 15 4 15 6 0 10 -7
10 -15z m-118 -47 c-7 -7 -12 -8 -12 -2 0 6 3 14 7 17 3 4 9 5 12 2 2 -3 -1
-11 -7 -17z m271 -19 c-9 -9 -12 -7 -10 9 1 14 5 18 11 12 7 -7 6 -14 -1 -21z
m18 -22 c-10 -9 -11 -8 -5 6 3 10 9 15 12 12 3 -3 0 -11 -7 -18z m-87 -23 c3
-8 2 -12 -4 -9 -6 3 -10 10 -10 16 0 14 7 11 14 -7z m147 -31 c13 -16 12 -17
-3 -4 -17 13 -22 21 -14 21 2 0 10 -8 17 -17z m-281 -12 c0 -6 -4 -13 -10 -16
-5 -3 -10 1 -10 9 0 9 5 16 10 16 6 0 10 -4 10 -9z m55 -60 c3 -5 2 -12 -3
-15 -5 -3 -9 1 -9 9 0 17 3 19 12 6z m221 -24 c4 -4 -2 -7 -14 -7 -12 0 -22 4
-22 9 0 10 26 9 36 -2z m-24 -39 c-7 -7 -12 -8 -12 -2 0 6 3 14 7 17 3 4 9 5
12 2 2 -3 -1 -11 -7 -17z m-22 -12 c0 -2 -7 -7 -16 -10 -8 -3 -12 -2 -9 4 6
10 25 14 25 6z m-202 -25 c10 -6 9 -10 -7 -14 -21 -5 -36 5 -24 17 8 8 15 7
31 -3z m-38 -29 c0 -5 -7 -9 -15 -9 -8 0 -15 4 -15 9 0 4 7 8 15 8 8 0 15 -4
15 -8z m10 -47 c7 -9 8 -15 2 -15 -5 0 -12 7 -16 15 -3 8 -4 15 -2 15 2 0 9
-7 16 -15z m220 -54 c0 -10 -6 -24 -14 -30 -11 -9 -14 -8 -12 6 1 14 -6 18
-26 16 -23 -1 -25 1 -15 12 19 22 67 19 67 -4z m-36 -25 c-6 -16 -34 -30 -34
-18 0 5 5 13 12 20 16 16 29 15 22 -2z m78 -20 c10 9 28 -24 22 -40 -9 -22
-24 -20 -24 4 0 11 -4 20 -9 20 -5 0 -7 -8 -4 -19 3 -10 -1 -22 -8 -26 -8 -6
-10 -4 -4 5 5 8 4 11 -3 6 -20 -12 -92 -14 -85 -2 14 24 37 46 50 46 19 0 16
-18 -4 -23 -12 -3 -9 -5 8 -6 23 -1 26 2 21 25 -4 24 -3 25 15 15 11 -5 23 -8
25 -5z m58 -56 c0 -5 -5 -10 -10 -10 -6 0 -5 -6 2 -14 7 -8 16 -12 20 -10 10
7 20 -15 12 -27 -5 -8 -10 -6 -16 5 -5 9 -16 16 -25 16 -13 0 -14 -3 -5 -12
20 -20 13 -32 -8 -13 -25 22 -26 44 -2 61 21 16 32 17 32 4z m-100 -25 c0 -8
-4 -15 -8 -15 -5 0 -9 7 -9 15 0 8 4 15 9 15 4 0 8 -7 8 -15z m37 -5 c1 -11
-2 -22 -8 -25 -7 -5 -7 18 0 43 3 8 7 -1 8 -18z m-77 0 c0 -5 -4 -10 -10 -10
-5 0 -10 5 -10 10 0 6 5 10 10 10 6 0 10 -4 10 -10z m-50 -4 c0 -2 -6 -9 -14
-15 -11 -9 -16 -9 -22 0 -4 7 -3 9 4 5 6 -3 13 -2 17 4 6 10 15 14 15 6z m124
-44 c2 -4 -4 -8 -15 -8 -10 0 -19 4 -19 8 0 4 6 8 14 8 8 0 17 -4 20 -8z m166
-8 c0 -8 -4 -12 -10 -9 -5 3 -10 10 -10 16 0 5 5 9 10 9 6 0 10 -7 10 -16z
m-44 -2 c6 -4 14 -17 18 -29 5 -16 2 -25 -14 -33 -20 -11 -21 -10 -11 9 13 24
4 54 -15 47 -7 -3 -16 -1 -19 4 -7 12 25 13 41 2z m-326 -11 c0 -5 -11 -12
-25 -15 -26 -7 -34 -30 -14 -41 6 -4 8 -13 5 -21 -3 -8 -1 -14 5 -14 5 0 12 7
15 15 4 8 10 15 15 15 4 0 6 -7 3 -15 -4 -10 0 -15 12 -16 14 -1 12 -3 -6 -8
-15 -4 -27 -16 -30 -31 -6 -24 -6 -24 -18 -5 -11 19 -11 18 -12 -7 0 -16 -5
-28 -11 -28 -6 0 -9 -7 -6 -15 8 -20 -7 -27 -24 -12 -8 7 -12 11 -10 9 9 -5
46 123 38 129 -10 7 9 49 27 61 15 11 36 10 36 -1z m292 -35 c5 -24 -5 -28
-29 -13 -8 5 -13 3 -13 -4 0 -8 -4 -8 -15 1 -14 11 -13 14 7 25 35 19 45 17
50 -9z m28 14 c0 -5 -4 -10 -10 -10 -5 0 -10 5 -10 10 0 6 5 10 10 10 6 0 10
-4 10 -10z m76 -27 c-11 -11 -19 6 -11 24 8 17 8 17 12 0 3 -10 2 -21 -1 -24z
m16 -35 c-7 -7 -12 -8 -12 -2 0 14 12 26 19 19 2 -3 -1 -11 -7 -17z m-45 -10
c-3 -8 -6 -5 -6 6 -1 11 2 17 5 13 3 -3 4 -12 1 -19z m43 -152 c0 -3 -4 -8
-10 -11 -5 -3 -10 -1 -10 4 0 6 5 11 10 11 6 0 10 -2 10 -4z m23 -43 c3 -16 1
-32 -4 -37 -5 -6 -9 -2 -9 11 0 12 -3 28 -6 37 -3 9 -2 16 4 16 5 0 12 -12 15
-27z m40 -5 c3 -12 4 -25 1 -30 -10 -17 -22 -7 -26 22 -5 35 16 42 25 8z m30
-53 c-7 -21 -13 -19 -13 6 0 11 4 18 10 14 5 -3 7 -12 3 -20z m-83 -75 c13 -8
13 -10 -2 -10 -9 0 -20 5 -23 10 -8 13 5 13 25 0z"/>
<path d="M13 2243 c-7 -2 -13 -20 -13 -38 0 -24 4 -32 17 -31 10 0 19 -10 24
-28 10 -36 3 -49 -22 -41 -17 6 -19 1 -19 -50 0 -35 4 -54 10 -50 5 3 10 12
10 19 0 16 38 51 46 43 3 -3 19 7 36 23 28 27 29 31 15 50 -8 12 -33 37 -56
56 -23 20 -39 40 -35 45 6 10 5 10 -13 2z"/>
<path d="M519 2162 c-54 -58 -70 -103 -36 -102 14 1 41 36 51 68 4 12 11 22
16 22 5 0 7 7 4 15 -8 19 -15 18 -35 -3z"/>
<path d="M1975 2170 c-3 -5 1 -10 9 -10 9 0 16 -7 16 -15 0 -8 6 -14 13 -12 6
1 12 -6 12 -15 0 -10 6 -23 13 -30 11 -11 12 -10 7 5 -5 11 -2 17 6 17 8 0 -3
16 -23 35 -40 38 -44 40 -53 25z"/>
<path d="M2537 2124 c-15 -8 -32 -12 -37 -9 -17 11 -11 -7 8 -21 17 -13 51
-20 39 -7 -4 3 0 17 8 30 18 27 18 27 -18 7z"/>
<path d="M1468 2118 c-7 -19 2 -38 17 -38 15 0 28 27 19 41 -8 13 -31 11 -36
-3z"/>
<path d="M993 2093 c-33 -13 8 -57 45 -48 31 8 80 -11 85 -33 4 -15 5 -15 12
1 10 24 -8 43 -58 60 -23 8 -49 17 -57 20 -8 3 -21 3 -27 0z"/>
<path d="M1265 2080 c3 -5 8 -10 11 -10 2 0 4 5 4 10 0 6 -5 10 -11 10 -5 0
-7 -4 -4 -10z"/>
<path d="M816 2053 c-26 -24 -30 -25 -41 -10 -10 15 -14 15 -33 1 -12 -8 -30
-14 -39 -12 -14 2 -18 -4 -18 -26 0 -18 -8 -34 -22 -43 -22 -14 -23 -14 -23 7
0 15 -4 20 -15 16 -8 -3 -18 2 -23 10 -7 12 -13 14 -28 6 -10 -6 -27 -13 -37
-16 -10 -3 -23 -19 -28 -36 -6 -16 -18 -30 -26 -30 -8 0 -11 5 -7 11 4 6 -1 9
-13 7 -11 -2 -28 3 -37 11 -14 12 -22 12 -37 3 -27 -17 -39 -15 -39 9 0 16 -4
19 -22 14 -13 -4 -30 -14 -38 -24 -19 -21 -50 -35 -73 -32 -14 2 -16 -3 -11
-22 4 -19 1 -28 -14 -36 -32 -17 -52 -13 -52 9 0 11 5 20 10 20 6 0 10 4 10 9
0 10 -48 2 -56 -10 -3 -5 -17 -9 -31 -9 -16 0 -27 -7 -30 -19 -3 -11 -13 -21
-24 -24 -14 -4 -19 -14 -19 -36 0 -17 5 -31 12 -31 9 0 9 -3 0 -12 -9 -9 -12
-85 -12 -280 l0 -268 22 3 c12 1 37 18 56 37 19 19 36 31 38 25 4 -11 65 -12
82 -1 17 10 32 -2 32 -24 0 -10 7 -25 15 -34 8 -8 15 -22 15 -31 0 -8 6 -18
14 -21 8 -3 16 -14 19 -25 7 -26 -34 -26 -53 0 -7 11 -16 18 -19 16 -3 -2 -6
14 -5 36 1 37 -15 58 -17 22 0 -11 -3 -13 -6 -5 -2 6 -11 12 -19 12 -20 0 -17
-37 4 -45 15 -6 13 -10 -13 -31 -38 -30 -49 -30 -63 1 -8 17 -16 23 -28 18
-12 -4 -15 -3 -10 5 4 7 3 12 -3 12 -5 0 -13 -5 -17 -11 -3 -6 -15 -9 -25 -6
-18 5 -19 -2 -19 -89 0 -52 2 -94 5 -94 3 0 19 14 36 31 24 25 35 29 59 24 16
-3 34 -13 41 -21 16 -20 52 -17 93 7 36 21 36 21 36 1 0 -12 9 -23 20 -27 11
-3 20 -11 20 -17 0 -6 6 -6 15 2 8 7 15 23 15 36 0 13 5 24 10 24 6 0 10 -11
10 -25 0 -21 5 -25 31 -25 52 0 61 25 31 82 -17 33 -28 45 -33 36 -8 -12 -24
-4 -24 12 0 4 -15 30 -33 58 -28 44 -31 54 -20 71 8 14 22 20 44 19 17 -1 35
2 41 5 6 4 26 -9 45 -27 32 -31 36 -32 60 -20 19 10 123 14 123 4 0 -9 61 -2
72 8 8 8 33 15 56 15 28 0 56 9 86 28 27 17 48 24 52 18 10 -16 59 -39 83 -39
11 0 29 7 38 14 13 10 32 11 70 5 62 -10 104 -4 125 17 31 30 58 43 88 40 16
-2 44 3 62 12 31 15 36 15 62 -1 30 -17 65 -14 93 10 10 9 18 11 22 4 9 -14
36 -2 36 16 0 8 3 13 8 11 49 -24 61 -33 65 -49 4 -15 15 -19 54 -19 26 -1 68
-5 93 -10 36 -7 49 -5 62 7 10 9 24 13 32 10 9 -4 18 -2 21 3 4 6 25 10 49 10
31 0 51 -7 72 -25 27 -23 34 -26 50 -24 4 0 11 -5 15 -13 5 -7 9 -8 9 -2 0 6
-11 23 -25 38 -13 14 -27 42 -31 61 -3 19 -10 35 -16 35 -5 0 -7 -4 -3 -9 3
-5 1 -12 -4 -15 -5 -4 -18 7 -27 24 -10 16 -23 30 -30 30 -6 0 -10 11 -9 25 2
14 -2 25 -8 25 -7 0 -13 15 -13 33 -3 70 -14 131 -25 137 -8 6 -8 10 2 16 8 5
15 25 16 44 7 151 8 143 -15 131 -21 -11 -42 3 -42 28 0 10 -6 6 -13 -9 -9
-17 -10 -27 -3 -32 7 -5 7 -8 -1 -8 -7 0 -13 -7 -13 -15 0 -22 -57 -20 -64 3
-7 22 -43 45 -51 32 -3 -6 -1 -10 4 -10 6 0 11 -12 11 -26 0 -19 4 -25 15 -20
8 3 15 1 15 -4 0 -6 -9 -10 -20 -10 -11 0 -20 -4 -20 -9 0 -5 -11 -12 -25 -15
-39 -10 -50 -79 -23 -149 8 -21 13 -50 10 -64 -4 -23 -8 -24 -47 -19 -31 5
-45 3 -55 -9 -14 -17 -70 -21 -70 -5 0 6 -9 10 -20 10 -13 0 -22 9 -26 25 -6
24 -34 36 -34 15 0 -15 -36 -12 -50 5 -16 19 -6 45 20 52 11 3 22 13 25 23 7
21 32 30 60 20 32 -11 48 -1 77 46 16 25 35 44 45 44 32 1 48 23 48 65 0 53
-26 77 -106 99 -82 22 -167 36 -184 29 -8 -2 -16 -12 -18 -21 -4 -15 -5 -15
-6 1 -1 21 -24 22 -44 2 -9 -9 -39 -15 -79 -17 -58 -2 -72 2 -146 40 -46 23
-87 42 -92 42 -5 0 -16 -7 -25 -16 -11 -12 -19 -13 -28 -5 -7 5 -23 8 -35 4
-16 -4 -22 -1 -22 11 0 21 -23 96 -30 96 -3 0 -18 -12 -34 -27z m-316 -153 c0
-5 -7 -10 -15 -10 -8 0 -15 5 -15 10 0 6 7 10 15 10 8 0 15 -4 15 -10z m520
-10 c0 -5 -7 -10 -15 -10 -8 0 -15 5 -15 10 0 6 7 10 15 10 8 0 15 -4 15 -10z
m78 -56 c12 -4 22 -11 22 -18 0 -6 9 -17 20 -24 12 -7 18 -17 15 -22 -3 -4 2
-15 10 -23 21 -22 19 -27 -15 -38 -16 -6 -30 -15 -30 -20 0 -5 -6 -9 -14 -9
-18 0 -40 -26 -28 -34 6 -3 15 0 21 8 9 10 21 12 48 6 46 -11 57 -23 49 -54
-7 -30 -35 -47 -77 -48 -38 -1 -50 11 -56 58 -6 47 -11 53 -49 60 -44 8 -56 7
-92 -7 -26 -11 -34 -11 -41 -1 -6 9 -17 5 -46 -18 -21 -16 -48 -30 -60 -30
-27 0 -75 46 -75 71 0 11 -4 19 -8 19 -12 0 -41 70 -36 85 9 22 54 28 73 10
22 -19 55 -19 71 0 11 13 18 12 61 -11 40 -22 51 -25 64 -14 9 7 27 10 45 6
23 -4 32 -1 37 10 3 8 12 13 19 10 8 -3 14 1 14 8 0 8 -6 17 -12 19 -18 8 43
8 70 1z m395 -44 c5 -4 4 -17 -2 -29 -13 -24 -47 -27 -75 -6 -19 14 -19 15 -1
35 19 21 57 21 78 0z m-1179 -9 c3 -5 -1 -14 -9 -21 -8 -7 -15 -10 -15 -7 0 3
-3 12 -6 21 -7 17 20 23 30 7z m330 -17 c3 -8 2 -12 -4 -9 -6 3 -10 10 -10 16
0 14 7 11 14 -7z m1180 -7 c-3 -8 6 -18 21 -25 14 -6 25 -20 25 -30 0 -10 5
-23 12 -30 36 -36 -96 -70 -135 -34 -15 13 -16 18 -5 27 7 5 23 31 35 58 13
26 29 47 38 47 8 0 12 -6 9 -13z m-474 -41 c0 -3 -4 -8 -10 -11 -5 -3 -10 -1
-10 4 0 6 5 11 10 11 6 0 10 -2 10 -4z m-12 -35 c18 -11 5 -58 -21 -76 -30
-21 -63 -19 -87 7 -34 37 -19 93 16 58 11 -11 54 -2 54 11 0 11 21 11 38 0z
m567 -51 c3 -5 1 -10 -4 -10 -6 0 -11 5 -11 10 0 6 2 10 4 10 3 0 8 -4 11 -10z
m-1475 -610 c0 -5 -2 -10 -4 -10 -3 0 -8 5 -11 10 -3 6 -1 10 4 10 6 0 11 -4
11 -10z"/>
<path d="M97 2043 c4 -16 7 -45 7 -65 1 -46 11 -49 20 -7 10 53 7 87 -10 93
-24 9 -25 8 -17 -21z"/>
<path d="M1990 2055 c-11 -13 -10 -14 4 -9 9 3 16 10 16 15 0 13 -6 11 -20 -6z"/>
<path d="M1310 2040 c0 -5 5 -10 10 -10 6 0 10 5 10 10 0 6 -4 10 -10 10 -5 0
-10 -4 -10 -10z"/>
<path d="M210 2025 c0 -8 7 -15 15 -15 8 0 15 7 15 15 0 8 -7 15 -15 15 -8 0
-15 -7 -15 -15z"/>
<path d="M1724 2020 c-25 -10 -35 -32 -24 -49 5 -9 12 -10 26 -3 11 6 32 13
47 17 20 4 27 11 25 23 -4 19 -42 26 -74 12z"/>
<path d="M2600 2026 c0 -2 7 -9 15 -16 9 -7 15 -8 15 -2 0 5 -7 12 -15 16 -8
3 -15 4 -15 2z"/>
<path d="M5370 2000 c-13 -8 -12 -11 5 -24 19 -14 19 -15 -8 -40 -16 -15 -32
-24 -37 -21 -5 3 -12 -5 -16 -17 -5 -17 -1 -26 16 -38 12 -8 32 -25 45 -37 12
-13 25 -23 29 -23 3 0 6 47 6 105 0 108 -4 118 -40 95z"/>
<path d="M210 1989 c0 -5 5 -7 10 -4 6 3 10 8 10 11 0 2 -4 4 -10 4 -5 0 -10
-5 -10 -11z"/>
<path d="M2080 1991 c0 -4 11 -6 25 -3 14 2 25 6 25 8 0 2 -11 4 -25 4 -14 0
-25 -4 -25 -9z"/>
<path d="M2567 1976 c-4 -10 -1 -13 9 -9 7 3 14 9 14 14 0 14 -17 10 -23 -5z"/>
<path d="M1973 1965 c-9 -24 6 -31 21 -10 11 16 17 17 29 7 9 -8 18 -9 21 -4
3 6 -1 13 -10 16 -28 11 -54 6 -61 -9z"/>
<path d="M2580 1942 c0 -5 11 -14 25 -20 14 -6 25 -10 25 -8 0 2 -11 11 -25
20 -14 9 -25 13 -25 8z"/>
<path d="M2502 1857 c-1 -10 -9 -29 -18 -42 -16 -25 -10 -32 14 -16 9 5 12 21
9 42 -2 19 -5 26 -5 16z"/>
<path d="M2556 1833 c4 -21 11 -43 16 -50 10 -13 3 -33 -13 -33 -5 0 -9 9 -9
19 0 11 -5 23 -12 27 -7 5 -9 2 -5 -8 3 -9 -3 -25 -15 -38 -17 -18 -18 -24 -7
-31 9 -5 16 -2 21 10 4 12 15 18 31 16 21 -3 26 2 29 25 3 20 1 27 -9 23 -9
-4 -13 6 -13 36 0 23 -5 41 -10 41 -7 0 -8 -14 -4 -37z"/>
<path d="M2600 1865 c1 -16 28 -47 38 -44 5 2 -2 15 -14 29 -13 13 -24 20 -24
15z"/>
<path d="M2055 1849 c-11 -17 1 -21 15 -4 8 9 8 15 2 15 -6 0 -14 -5 -17 -11z"/>
<path d="M2715 1830 c3 -5 8 -10 11 -10 2 0 4 5 4 10 0 6 -5 10 -11 10 -5 0
-7 -4 -4 -10z"/>
<path d="M2615 1800 c-3 -5 -1 -10 4 -10 6 0 11 5 11 10 0 6 -2 10 -4 10 -3 0
-8 -4 -11 -10z"/>
<path d="M2650 1781 c0 -7 -4 -9 -10 -6 -6 4 -7 -1 -3 -11 4 -12 8 -14 11 -6
3 10 7 10 20 0 16 -12 16 -11 2 7 -8 11 -16 22 -17 24 -2 2 -3 -1 -3 -8z"/>
<path d="M3970 1782 c0 -22 40 -82 56 -82 4 0 0 8 -8 18 -9 9 -23 31 -31 47
-9 17 -16 24 -17 17z"/>
<path d="M4252 1760 c0 -19 2 -27 5 -17 2 9 2 25 0 35 -3 9 -5 1 -5 -18z"/>
<path d="M2600 1735 c-19 -23 -8 -25 14 -4 11 11 15 19 9 19 -6 0 -16 -7 -23
-15z"/>
<path d="M3960 1727 c0 -4 14 -20 30 -37 31 -32 32 -57 1 -45 -11 4 -13 3 -5
-5 17 -17 44 -1 42 25 -1 13 -5 22 -9 19 -4 -2 -18 8 -33 23 -14 14 -26 23
-26 20z"/>
<path d="M2445 1700 c-3 -5 -1 -10 4 -10 6 0 11 5 11 10 0 6 -2 10 -4 10 -3 0
-8 -4 -11 -10z"/>
<path d="M2975 1700 c3 -5 8 -10 11 -10 2 0 4 5 4 10 0 6 -5 10 -11 10 -5 0
-7 -4 -4 -10z"/>
<path d="M3056 1685 c24 -39 24 -40 24 -28 0 6 -9 21 -21 34 l-20 24 17 -30z"/>
<path d="M2590 1692 c0 -4 9 -13 20 -20 19 -12 20 -11 8 8 -13 20 -28 27 -28
12z"/>
<path d="M3012 1686 c12 -15 9 -28 -4 -19 -19 11 -39 13 -32 2 3 -6 7 -51 9
-100 3 -73 1 -90 -10 -86 -7 3 -15 -3 -18 -14 -3 -10 -2 -17 3 -14 4 3 14 -3
21 -12 12 -15 12 -16 -4 -10 -11 4 -16 3 -12 -4 4 -6 9 -28 11 -49 3 -32 0
-42 -17 -51 -14 -7 -19 -17 -16 -30 3 -10 1 -22 -4 -25 -6 -3 -9 -13 -8 -22 2
-10 -4 -33 -13 -53 -32 -75 -32 -77 8 -94 20 -8 40 -12 45 -9 5 3 15 2 21 -3
15 -8 72 -14 144 -13 28 1 82 -5 120 -11 81 -15 194 -18 194 -5 0 4 16 5 35 2
19 -4 35 -3 35 2 0 5 11 7 24 5 13 -3 51 2 85 11 75 19 71 19 71 3 0 -7 9 -23
20 -35 11 -12 20 -30 20 -42 0 -11 6 -20 13 -20 16 0 51 -37 61 -65 7 -19 8
-19 21 -2 11 16 13 16 19 2 3 -9 10 -14 15 -11 17 11 60 -81 71 -150 10 -69
19 -161 23 -220 1 -21 6 -30 15 -27 12 5 16 18 12 38 -1 5 8 1 19 -9 25 -22
27 -30 6 -22 -8 3 -15 1 -15 -4 0 -5 9 -11 19 -15 11 -3 22 -13 25 -21 4 -12
2 -15 -9 -10 -10 4 -8 -4 7 -28 l22 -34 15 31 c8 18 18 34 21 37 3 3 7 28 9
55 1 28 7 51 11 53 5 2 6 10 3 18 -3 8 -1 20 5 27 5 6 12 35 15 64 5 44 4 51
-10 46 -12 -5 -14 -1 -8 15 5 19 2 22 -19 22 -14 0 -26 -4 -26 -10 0 -5 4 -10
9 -10 5 0 8 -11 7 -25 -1 -31 -4 -31 -16 -2 l-9 22 0 -24 c-1 -24 -1 -24 -16
-5 -19 25 -20 84 -1 84 12 0 11 9 -4 51 -11 28 -26 59 -33 68 -8 9 -18 26 -21
38 -5 16 5 10 38 -23 25 -24 50 -44 56 -44 5 0 10 -4 10 -9 0 -5 6 -11 14 -14
15 -6 15 -5 -10 88 -9 33 -19 75 -21 93 -3 17 -11 32 -18 32 -19 0 -25 37 -9
51 12 10 12 14 1 28 -28 32 -31 44 -9 30 11 -7 31 -31 43 -52 12 -22 16 -37 9
-32 -9 6 -9 2 1 -16 7 -13 13 -31 14 -39 0 -8 5 -15 12 -15 6 0 15 -3 19 -7 4
-5 2 -8 -4 -8 -9 0 -9 -5 0 -20 7 -11 18 -20 25 -20 7 0 13 -7 13 -15 0 -8 5
-15 10 -15 6 0 10 -9 10 -21 0 -11 5 -17 10 -14 6 3 10 -4 10 -17 1 -21 2 -22
14 -6 12 16 14 15 32 -10 11 -15 30 -48 42 -74 12 -27 27 -48 32 -48 6 0 10 2
10 5 0 8 -24 48 -37 63 -16 17 -17 49 -2 58 8 5 6 10 -5 16 -9 5 -14 13 -11
18 6 10 -30 50 -45 50 -18 0 -10 19 11 25 24 8 62 -22 55 -42 -4 -11 6 -13 44
-11 28 2 50 6 50 10 0 4 10 9 23 11 l22 4 -22 2 c-16 1 -23 7 -23 20 0 11 -4
23 -10 26 -5 3 -10 13 -10 21 0 11 4 12 19 5 10 -6 22 -7 27 -3 5 4 2 -1 -5
-10 -8 -11 -9 -18 -3 -18 19 0 23 18 10 40 -7 11 -19 18 -25 15 -7 -2 -13 2
-13 9 0 7 -7 19 -15 26 -8 7 -15 19 -15 26 0 20 27 17 34 -2 4 -9 9 -15 12
-12 6 6 -17 58 -25 58 -3 0 -12 -9 -19 -20 -21 -35 -35 -24 -28 23 4 31 3 38
-4 25 -14 -22 -16 -67 -5 -93 6 -15 3 -13 -13 6 -11 14 -22 40 -24 59 -2 18
-9 35 -16 38 -9 3 -11 -3 -6 -24 5 -19 4 -25 -5 -20 -6 4 -11 14 -11 22 0 8
-4 12 -10 9 -5 -3 -10 1 -10 10 0 10 5 13 13 9 6 -4 -1 5 -16 19 -34 33 -35
33 -32 3 2 -18 -1 -23 -11 -19 -8 3 -14 11 -14 19 0 7 -13 20 -30 29 -37 19
-39 29 -4 21 32 -8 23 11 -12 24 -22 9 -36 52 -16 49 23 -4 34 2 28 18 -4 9
-1 20 6 24 7 4 9 11 5 15 -12 13 -35 -16 -30 -39 5 -18 3 -20 -7 -10 -11 10
-16 9 -27 -5 -8 -9 -11 -11 -7 -3 5 11 3 13 -9 8 -17 -6 -45 28 -33 41 3 3 -1
16 -9 28 -9 14 -11 25 -5 29 6 3 10 -1 10 -9 0 -10 6 -13 15 -9 9 3 15 2 14
-3 -4 -24 1 -38 11 -28 8 8 7 20 0 39 -6 16 -8 35 -6 42 3 8 1 11 -4 8 -6 -3
-10 -14 -10 -23 0 -15 -2 -15 -10 -2 -5 8 -7 23 -4 32 3 9 0 35 -7 56 -10 33
-15 38 -35 34 -30 -5 -42 -22 -17 -23 11 0 13 -3 5 -6 -7 -3 -21 2 -30 11 -17
14 -18 13 -16 -22 1 -32 -14 -96 -15 -66 -1 5 -7 18 -14 28 -13 17 -14 18 -20
2 -4 -10 -3 -15 3 -11 6 3 10 2 10 -4 0 -5 -5 -13 -11 -17 -13 -8 -30 16 -22
31 4 5 3 7 -2 3 -4 -4 -13 -18 -19 -30 -6 -13 -28 -34 -49 -47 -20 -13 -37
-32 -37 -41 0 -9 -7 -25 -15 -36 -14 -19 -14 -19 -15 2 0 29 25 86 34 77 4 -4
4 0 1 9 -7 17 -34 32 -43 23 -3 -3 0 -5 6 -5 17 0 15 -38 -2 -55 -16 -17 -28
-7 -45 36 -8 23 -41 37 -41 17 0 -4 7 -8 15 -8 8 0 15 -8 15 -19 0 -10 -7 -24
-15 -31 -8 -7 -15 -18 -15 -25 0 -15 -29 -75 -37 -75 -3 0 -3 11 -1 25 3 14 2
25 -2 25 -10 0 -18 31 -13 48 3 6 12 12 21 12 13 0 12 3 -4 14 -17 13 -20 12
-26 -5 -12 -32 -28 -22 -18 11 8 28 7 30 -21 30 -16 0 -29 -4 -29 -10 0 -19
-42 -10 -47 10 -3 11 -10 20 -15 20 -5 0 -6 -5 -2 -11 3 -6 0 -15 -7 -20 -12
-8 -12 -11 1 -19 11 -8 7 -9 -15 -4 -40 9 -41 11 -20 34 14 15 16 23 7 30 -7
6 -10 7 -7 4 5 -7 -40 -34 -57 -34 -6 0 -8 9 -5 19 3 14 1 18 -9 14 -8 -3 -14
-14 -14 -25 0 -10 -4 -17 -9 -13 -5 3 -16 -3 -23 -12 -18 -24 -64 -29 -72 -8
-3 9 -1 25 5 36 6 11 9 25 7 31 -2 6 -16 -13 -31 -43 -15 -30 -27 -45 -27 -34
1 11 7 31 15 45 17 29 19 54 5 45 -5 -3 -10 -15 -10 -25 0 -10 -5 -22 -11 -26
-7 -4 -10 3 -9 17 1 13 1 35 0 49 l-2 25 -7 -25 c-4 -14 -13 -24 -20 -22 -7 1
-10 -2 -7 -7 3 -5 1 -20 -4 -33 -9 -19 -10 -16 -6 20 3 34 0 44 -14 52 -10 6
-22 19 -25 31 -4 12 -24 37 -44 58 -20 20 -33 32 -29 27z m18 -48 c0 -16 -3
-19 -11 -11 -6 6 -8 16 -5 22 11 17 16 13 16 -11z m36 -46 c6 -27 4 -31 -10
-26 -11 4 -13 10 -7 18 6 7 6 17 1 26 -13 20 -13 37 0 24 5 -5 13 -24 16 -42z
m951 -44 c-3 -7 -5 -2 -5 12 0 14 2 19 5 13 2 -7 2 -19 0 -25z m-37 7 c-7 -9
-15 -13 -19 -10 -3 3 1 10 9 15 21 14 24 12 10 -5z m-880 -9 c0 -8 -4 -17 -9
-21 -6 -3 -9 4 -8 15 1 23 17 28 17 6z m927 -48 c-3 -8 -6 -5 -6 6 -1 11 2 17
5 13 3 -3 4 -12 1 -19z m-47 8 c0 -3 -4 -8 -10 -11 -5 -3 -10 -1 -10 4 0 6 5
11 10 11 6 0 10 -2 10 -4z m-605 -36 c-3 -6 1 -13 9 -16 9 -3 16 -12 16 -20 0
-10 -6 -8 -20 6 -22 22 -26 40 -9 40 5 0 7 -5 4 -10z m-218 -42 c-3 -8 -6 -5
-6 6 -1 11 2 17 5 13 3 -3 4 -12 1 -19z m347 10 c-5 -7 -2 -9 7 -6 10 4 15 -1
16 -12 1 -13 -5 -18 -18 -17 -11 1 -17 7 -15 14 3 7 1 13 -5 13 -6 0 -7 5 -4
10 3 6 11 10 16 10 6 0 7 -5 3 -12z m-33 -15 c13 -16 12 -17 -3 -4 -14 11 -18
11 -18 1 0 -8 -3 -11 -6 -7 -5 5 3 27 10 27 2 0 10 -8 17 -17z m234 -32 c-4
-14 -8 -38 -8 -53 -2 -34 -14 -36 -27 -5 -5 12 -9 16 -9 9 -1 -7 -5 -10 -11
-7 -15 9 30 94 47 88 11 -4 13 -14 8 -32z m313 19 c-7 -10 -14 -17 -17 -15 -4
4 18 35 25 35 2 0 -1 -9 -8 -20z m-683 -10 c-3 -5 -12 -10 -18 -10 -7 0 -6 4
3 10 19 12 23 12 15 0z m686 -27 c-12 -20 -14 -14 -5 12 4 9 9 14 11 11 3 -2
0 -13 -6 -23z m47 -38 c-3 -3 -9 2 -12 12 -6 14 -5 15 5 6 7 -7 10 -15 7 -18z
m31 -17 c-2 -13 1 -30 6 -38 8 -13 7 -13 -8 -1 -17 14 -23 42 -10 54 11 12 15
8 12 -15z m-518 -41 c-10 -9 -11 -8 -5 6 3 10 9 15 12 12 3 -3 0 -11 -7 -18z
m139 -50 c0 -29 -17 -11 -22 24 -5 29 -4 30 9 14 7 -11 13 -27 13 -38z m-80
21 c0 -5 5 -6 12 -2 8 5 9 2 3 -12 -5 -10 -8 -35 -7 -54 1 -43 -13 -23 -26 37
-7 31 -6 40 4 40 8 0 14 -4 14 -9z m-456 -37 c3 -4 -6 -13 -19 -19 -18 -8 -26
-8 -31 0 -4 7 -3 8 5 4 6 -4 14 0 17 8 7 18 20 21 28 7z m259 -12 c-6 -6 -17
-8 -24 -3 -9 5 -8 9 7 14 23 9 31 3 17 -11z m789 -6 c19 -17 25 -63 8 -63 -5
0 -10 -12 -10 -27 0 -14 -3 -24 -6 -21 -3 4 -5 31 -5 62 0 33 -5 56 -11 56 -7
0 -9 -20 -6 -55 3 -37 1 -54 -6 -52 -17 5 -20 98 -4 108 18 12 19 11 40 -8z
m-877 -15 c6 -4 2 -8 -7 -8 -10 0 -18 7 -18 17 0 9 3 12 8 7 4 -5 12 -12 17
-16z m65 -18 c0 -5 -5 -10 -11 -10 -5 0 -7 5 -4 10 3 6 8 10 11 10 2 0 4 -4 4
-10z m166 -16 c-4 -9 -9 -15 -11 -12 -3 3 -3 13 1 22 4 9 9 15 11 12 3 -3 3
-13 -1 -22z m-236 1 c0 -8 -4 -15 -10 -15 -5 0 -10 7 -10 15 0 8 5 15 10 15 6
0 10 -7 10 -15z m110 -41 c0 -22 -16 -17 -17 6 -1 11 2 18 8 15 5 -4 9 -13 9
-21z m830 0 c14 -35 13 -44 -5 -44 -8 0 -15 -7 -15 -15 0 -18 -14 -19 -28 -2
-10 12 -9 34 4 75 6 21 34 13 44 -14z m-140 -9 c0 -8 -2 -15 -4 -15 -2 0 -6 7
-10 15 -3 8 -1 15 4 15 6 0 10 -7 10 -15z m215 -26 c11 -17 -1 -21 -15 -4 -8
9 -8 15 -2 15 6 0 14 -5 17 -11z m-185 -15 c0 -8 -4 -12 -10 -9 -5 3 -10 10
-10 16 0 5 5 9 10 9 6 0 10 -7 10 -16z m208 -73 c-7 -2 -16 -9 -20 -15 -4 -6
-8 4 -8 21 0 32 1 32 20 15 14 -12 17 -18 8 -21z"/>
<path d="M4257 1081 c-4 -17 -3 -21 5 -13 5 5 8 16 6 23 -3 8 -7 3 -11 -10z"/>
<path d="M4237 1683 c-3 -5 -1 -17 4 -28 7 -17 8 -17 8 8 1 27 -4 34 -12 20z"/>
<path d="M3970 1670 c0 -6 7 -10 15 -10 8 0 15 2 15 4 0 2 -7 6 -15 10 -8 3
-15 1 -15 -4z"/>
<path d="M4075 1669 c-4 -6 -5 -12 -2 -15 2 -3 7 2 10 11 7 17 1 20 -8 4z"/>
<path d="M2567 1652 c-10 -10 -14 -21 -11 -25 3 -3 2 -13 -4 -23 -11 -20 14
-50 43 -50 17 0 20 7 20 42 0 23 -4 46 -9 51 -5 4 -7 3 -3 -3 8 -14 -14 -85
-25 -78 -11 7 -10 61 2 85 13 24 8 24 -13 1z"/>
<path d="M3935 1650 c3 -5 11 -10 16 -10 6 0 7 5 4 10 -3 6 -11 10 -16 10 -6
0 -7 -4 -4 -10z"/>
<path d="M4046 1652 c-3 -6 -2 -14 4 -17 6 -4 8 -15 5 -26 -4 -11 -3 -33 0
-50 7 -30 7 -31 22 -9 8 12 12 24 9 27 -3 4 -6 1 -6 -5 0 -7 -5 -12 -11 -12
-8 0 -10 13 -6 38 6 38 -5 73 -17 54z"/>
<path d="M3117 1608 c10 -18 19 -35 21 -37 1 -2 5 -1 8 2 4 4 1 13 -6 22 -7 8
-9 15 -5 15 4 0 2 7 -5 15 -23 27 -31 16 -13 -17z"/>
<path d="M4231 1594 c0 -11 3 -14 6 -6 3 7 2 16 -1 19 -3 4 -6 -2 -5 -13z"/>
<path d="M2635 1569 c-11 -16 -1 -19 13 -3 7 8 8 14 3 14 -5 0 -13 -5 -16 -11z"/>
<path d="M2054 1544 c-18 -14 -18 -15 4 -4 12 6 22 13 22 15 0 8 -5 6 -26 -11z"/>
<path d="M4217 1539 c-6 -22 1 -49 12 -49 4 0 5 16 3 35 -5 40 -8 43 -15 14z"/>
<path d="M3259 1520 c-4 -14 -10 -34 -14 -45 -7 -19 -7 -19 9 -4 11 10 16 27
14 45 -3 29 -3 29 -9 4z"/>
<path d="M4095 1530 c-3 -5 -1 -10 4 -10 6 0 11 5 11 10 0 6 -2 10 -4 10 -3 0
-8 -4 -11 -10z"/>
<path d="M2015 1520 c3 -5 8 -10 11 -10 2 0 4 5 4 10 0 6 -5 10 -11 10 -5 0
-7 -4 -4 -10z"/>
<path d="M2726 1515 c4 -8 10 -12 15 -9 11 6 2 24 -11 24 -5 0 -7 -7 -4 -15z"/>
<path d="M3535 1510 c-16 -7 -17 -9 -3 -9 9 -1 20 4 23 9 7 11 7 11 -20 0z"/>
<path d="M3705 1511 c-3 -5 -1 -12 5 -16 5 -3 10 1 10 9 0 18 -6 21 -15 7z"/>
<path d="M3801 1484 c0 -11 3 -14 6 -6 3 7 2 16 -1 19 -3 4 -6 -2 -5 -13z"/>
<path d="M4140 1485 c0 -8 4 -15 10 -15 5 0 7 7 4 15 -4 8 -8 15 -10 15 -2 0
-4 -7 -4 -15z"/>
<path d="M2136 1474 c-9 -8 -16 -22 -16 -30 0 -8 -8 -14 -17 -14 -15 0 -16 -2
-3 -10 13 -8 13 -13 2 -31 -18 -29 -9 -34 25 -14 15 9 20 14 9 10 -21 -6 -20
4 8 68 18 40 16 45 -8 21z"/>
<path d="M4330 1467 c0 -14 5 -29 10 -32 7 -4 8 3 4 22 -9 38 -14 42 -14 10z"/>
<path d="M2925 1470 c3 -5 8 -10 11 -10 2 0 4 5 4 10 0 6 -5 10 -11 10 -5 0
-7 -4 -4 -10z"/>
<path d="M3651 1457 c-1 -11 -10 -21 -21 -24 -22 -6 -22 -6 -14 -27 8 -22 24
-20 24 2 0 10 5 23 11 29 6 6 9 17 6 25 -4 8 -6 7 -6 -5z"/>
<path d="M4110 1459 c0 -5 5 -7 10 -4 6 3 10 8 10 11 0 2 -4 4 -10 4 -5 0 -10
-5 -10 -11z"/>
<path d="M2060 1444 c0 -8 5 -12 10 -9 6 4 8 11 5 16 -9 14 -15 11 -15 -7z"/>
<path d="M2698 1438 c5 -5 16 -8 23 -6 8 3 3 7 -10 11 -17 4 -21 3 -13 -5z"/>
<path d="M2904 1438 c3 -15 26 -23 26 -8 0 6 -4 9 -9 6 -5 -4 -12 -1 -14 4 -3
6 -4 5 -3 -2z"/>
<path d="M4240 1441 c0 -5 7 -12 16 -15 22 -9 24 -8 24 9 0 8 -9 15 -20 15
-11 0 -20 -4 -20 -9z"/>
<path d="M2000 1429 c0 -5 5 -7 10 -4 6 3 10 8 10 11 0 2 -4 4 -10 4 -5 0 -10
-5 -10 -11z"/>
<path d="M2874 1416 c-4 -9 -4 -20 0 -23 3 -4 6 2 6 13 0 17 3 16 20 -6 11
-14 20 -20 20 -14 0 6 -9 19 -20 29 -18 16 -20 16 -26 1z"/>
<path d="M4080 1399 c0 -5 5 -7 10 -4 6 3 10 8 10 11 0 2 -4 4 -10 4 -5 0 -10
-5 -10 -11z"/>
<path d="M4311 1398 c1 -7 5 -24 9 -38 8 -24 8 -24 9 7 1 17 -3 35 -9 38 -5 3
-10 0 -9 -7z"/>
<path d="M2785 1366 c-5 -12 -3 -21 6 -27 21 -13 39 -11 39 6 0 8 -6 12 -14 9
-8 -3 -16 2 -19 13 -4 17 -4 17 -12 -1z"/>
<path d="M4420 1317 c0 -31 4 -58 9 -62 6 -3 7 18 4 52 -8 76 -13 80 -13 10z"/>
<path d="M2745 1350 c-9 -15 3 -30 20 -24 7 3 11 12 8 20 -6 16 -19 18 -28 4z"/>
<path d="M2897 1336 c-4 -10 -5 -21 -2 -24 9 -9 17 6 13 25 -3 17 -4 17 -11
-1z"/>
<path d="M2790 1321 c0 -5 5 -13 10 -16 6 -3 10 -2 10 4 0 5 -4 13 -10 16 -5
3 -10 2 -10 -4z"/>
<path d="M4331 1320 c-1 -18 16 -46 23 -40 2 3 -2 16 -9 30 -8 15 -14 19 -14
10z"/>
<path d="M4411 1214 c0 -11 3 -14 6 -6 3 7 2 16 -1 19 -3 4 -6 -2 -5 -13z"/>
<path d="M4462 1140 c0 -14 2 -19 5 -12 2 6 2 18 0 25 -3 6 -5 1 -5 -13z"/>
<path d="M4430 1135 c0 -8 4 -15 10 -15 5 0 7 7 4 15 -4 8 -8 15 -10 15 -2 0
-4 -7 -4 -15z"/>
<path d="M430 1110 c0 -5 7 -10 15 -10 8 0 15 5 15 10 0 6 -7 10 -15 10 -8 0
-15 -4 -15 -10z"/>
<path d="M1545 970 c-3 -5 0 -10 7 -10 9 -1 7 -5 -4 -14 -10 -7 -18 -18 -18
-24 0 -7 -19 -9 -54 -5 -49 5 -54 4 -61 -16 -4 -13 -4 -25 -1 -28 3 -4 6 1 6
10 0 29 55 22 69 -9 6 -14 9 -29 6 -34 -10 -16 28 -20 40 -4 8 12 14 14 19 6
23 -37 35 8 14 52 -9 21 -8 29 4 43 14 15 14 20 2 31 -16 15 -21 15 -29 2z"/>
<path d="M445 960 c3 -5 8 -10 11 -10 2 0 4 5 4 10 0 6 -5 10 -11 10 -5 0 -7
-4 -4 -10z"/>
<path d="M877 964 c-8 -9 11 -44 24 -44 6 0 9 10 7 22 -3 22 -19 34 -31 22z"/>
<path d="M645 940 c-22 -25 -18 -30 18 -23 18 4 27 11 25 21 -5 24 -23 25 -43
2z"/>
<path d="M950 924 c5 -20 13 -40 18 -43 6 -3 12 -17 15 -31 4 -25 4 -25 6 3 0
16 7 27 15 27 21 0 31 21 15 30 -7 5 -17 6 -21 4 -4 -3 -8 0 -8 5 0 6 7 11 16
11 32 0 6 25 -28 28 l-36 3 8 -37z"/>
<path d="M5181 901 c-11 -11 -21 -25 -21 -29 0 -5 -17 -17 -37 -28 -37 -18
-45 -26 -61 -51 -6 -10 -14 -10 -40 -1 -28 11 -33 10 -47 -7 -20 -27 -19 -31
13 -44 58 -25 83 -43 80 -59 -4 -22 -51 -27 -67 -8 -7 8 -19 12 -26 10 -32
-13 -50 13 -51 73 -2 88 -13 123 -36 123 -16 0 -19 -5 -14 -24 3 -14 2 -27 -3
-30 -10 -7 -21 -83 -14 -102 2 -7 11 -10 18 -8 15 6 27 -10 29 -40 1 -18 7
-21 51 -21 55 0 74 -10 68 -36 -3 -11 4 -18 21 -23 16 -4 26 -13 26 -25 0 -19
29 -51 48 -51 14 0 27 41 15 49 -21 13 -35 52 -23 66 8 9 8 14 0 17 -6 2 -8
11 -5 20 5 11 23 17 68 20 74 6 92 2 76 -18 -19 -23 7 -17 36 9 14 12 36 31
50 42 41 33 32 52 -30 65 -57 12 -81 34 -69 65 4 9 2 20 -3 24 -5 3 -14 14
-20 25 -10 18 -11 18 -32 -3z m-11 -91 c-6 -11 -13 -20 -15 -20 -3 0 -5 9 -5
20 0 11 7 20 15 20 13 0 14 -4 5 -20z"/>
<path d="M851 884 c0 -11 3 -14 6 -6 3 7 2 16 -1 19 -3 4 -6 -2 -5 -13z"/>
<path d="M1240 890 c-1 -3 -3 -12 -5 -20 -1 -8 -4 -19 -6 -25 -6 -19 11 -76
21 -70 5 3 7 19 3 35 -3 19 -1 30 6 30 6 0 11 4 11 8 0 10 -29 49 -30 42z"/>
<path d="M780 840 c0 -5 5 -10 10 -10 6 0 10 5 10 10 0 6 -4 10 -10 10 -5 0
-10 -4 -10 -10z"/>
<path d="M4216 805 c-4 -16 -3 -32 2 -37 6 -6 11 0 14 16 7 36 -8 54 -16 21z"/>
<path d="M4243 812 c1 -14 5 -18 11 -12 7 7 6 14 -1 21 -9 9 -12 7 -10 -9z"/>
<path d="M1177 806 c-3 -8 -2 -18 4 -22 16 -9 22 2 11 21 -8 15 -10 16 -15 1z"/>
<path d="M3895 810 c3 -5 8 -10 11 -10 2 0 4 5 4 10 0 6 -5 10 -11 10 -5 0 -7
-4 -4 -10z"/>
<path d="M3745 800 c-3 -5 -1 -10 4 -10 6 0 11 5 11 10 0 6 -2 10 -4 10 -3 0
-8 -4 -11 -10z"/>
<path d="M3840 772 c0 -10 5 -23 11 -29 8 -8 8 -13 0 -17 -6 -4 -11 -2 -11 4
0 6 -5 8 -10 5 -16 -10 0 -27 21 -22 11 3 17 1 14 -3 -3 -5 -1 -11 4 -14 15
-10 22 41 9 68 -13 30 -38 35 -38 8z"/>
<path d="M1994 766 c-8 -22 3 -33 18 -18 9 9 9 15 0 24 -9 9 -13 7 -18 -6z"/>
<path d="M625 760 c3 -5 8 -10 11 -10 2 0 4 5 4 10 0 6 -5 10 -11 10 -5 0 -7
-4 -4 -10z"/>
<path d="M4340 740 c0 -5 5 -10 11 -10 5 0 7 5 4 10 -3 6 -8 10 -11 10 -2 0
-4 -4 -4 -10z"/>
<path d="M1673 694 c5 -32 4 -34 -14 -29 -15 5 -22 2 -26 -14 -3 -11 -9 -18
-14 -15 -5 3 -9 -4 -9 -15 0 -17 4 -19 23 -12 15 6 31 5 47 -4 24 -13 50 -10
50 6 0 5 -10 9 -23 9 -14 0 -24 6 -24 15 0 8 4 12 9 9 4 -3 8 6 8 20 0 14 4
26 10 26 5 0 2 9 -7 20 -26 30 -36 24 -30 -16z"/>
<path d="M4171 700 c1 -19 -2 -45 -5 -57 -2 -13 -1 -23 5 -23 5 0 9 -7 9 -15
0 -11 5 -12 25 -5 19 7 25 6 25 -5 0 -17 30 -34 48 -28 6 3 12 -1 12 -7 0 -7
8 -9 19 -5 11 3 22 1 26 -5 11 -18 26 0 15 19 -6 12 -6 30 0 50 6 22 5 29 -2
25 -7 -5 -9 3 -5 22 3 19 0 32 -11 41 -22 16 -52 17 -52 1 0 -9 -3 -8 -10 2
-8 12 -10 12 -16 -3 -6 -17 -7 -17 -21 0 -13 17 -14 16 -8 -4 7 -24 -9 -33
-18 -10 -3 6 -6 3 -7 -8 -1 -14 -5 -10 -15 15 l-14 35 0 -35z m104 -61 c9 -51
-1 -61 -27 -30 -16 20 -21 22 -28 11 -7 -12 -12 -12 -22 -2 -9 9 -8 12 5 12
10 0 21 8 24 18 7 17 22 32 35 32 3 0 9 -18 13 -41z"/>
<path d="M3690 704 c0 -8 -4 -12 -10 -9 -5 3 -10 1 -10 -4 0 -6 4 -11 9 -11 5
0 12 -15 16 -32 l7 -33 9 35 c9 38 3 70 -12 70 -5 0 -9 -7 -9 -16z"/>
<path d="M1535 699 c-9 -13 -5 -16 20 -21 12 -2 21 3 23 15 4 19 -32 25 -43 6z"/>
<path d="M1590 690 c0 -5 6 -10 14 -10 8 0 18 5 21 10 3 6 -3 10 -14 10 -12 0
-21 -4 -21 -10z"/>
<path d="M1753 689 c-34 -12 -29 -14 28 -10 28 1 48 6 45 9 -10 9 -50 10 -73
1z"/>
<path d="M2980 680 c-11 -20 3 -30 15 -10 3 6 16 10 28 11 21 0 21 1 2 9 -30
13 -33 12 -45 -10z"/>
<path d="M4366 682 c-6 -9 4 -21 32 -36 17 -10 15 -3 -7 23 -11 12 -22 18 -25
13z"/>
<path d="M3024 629 c7 -58 16 -61 16 -6 0 26 -5 47 -10 47 -7 0 -9 -16 -6 -41z"/>
<path d="M4729 660 c-20 -12 -14 -56 8 -65 20 -7 22 -5 25 34 3 36 -7 46 -33
31z"/>
<path d="M3751 646 c-9 -10 -9 -20 0 -40 17 -37 28 -32 22 12 -6 45 -7 46 -22
28z"/>
<path d="M4980 631 c0 -6 5 -13 11 -17 8 -4 2 -12 -15 -21 -14 -7 -26 -18 -26
-24 0 -6 4 -8 9 -5 5 4 7 -2 4 -13 -3 -12 2 -20 16 -24 25 -6 39 11 20 24 -8
5 -9 9 -4 9 9 0 12 42 5 60 -1 3 -2 8 -1 13 0 4 -3 7 -9 7 -5 0 -10 -4 -10 -9z"/>
<path d="M3690 601 c0 -7 -6 -11 -14 -8 -10 4 -15 -5 -18 -31 -7 -52 -1 -62
37 -62 51 0 63 28 38 89 -7 18 -12 21 -18 12 -6 -11 -9 -10 -16 0 -7 12 -9 12
-9 0z"/>
<path d="M4623 595 c5 -10 3 -21 -3 -25 -8 -5 -7 -9 3 -13 7 -3 20 -1 28 3 11
7 9 13 -11 32 -20 19 -23 20 -17 3z"/>
<path d="M37 582 c-22 -25 -21 -30 6 -27 41 4 42 6 24 19 -14 11 -15 15 -5 19
7 3 8 6 2 6 -6 1 -18 -7 -27 -17z"/>
<path d="M1755 590 c-3 -5 -1 -10 4 -10 6 0 11 5 11 10 0 6 -2 10 -4 10 -3 0
-8 -4 -11 -10z"/>
<path d="M140 578 c0 -9 5 -20 10 -23 13 -8 13 5 0 25 -8 13 -10 13 -10 -2z"/>
<path d="M3510 580 c0 -5 7 -7 15 -4 8 4 15 8 15 10 0 2 -7 4 -15 4 -8 0 -15
-4 -15 -10z"/>
<path d="M4740 562 c0 -21 -18 -32 -51 -32 -10 0 -19 -7 -19 -15 0 -21 -30
-19 -31 3 0 14 -2 14 -8 -3 -5 -11 -6 -22 -2 -25 3 -3 7 -43 9 -90 1 -46 7
-87 13 -90 10 -7 -3 -119 -16 -140 -4 -7 2 -9 18 -5 14 4 28 2 32 -5 5 -8 10
-8 20 0 12 10 13 5 10 -27 -4 -28 -3 -32 3 -13 5 17 10 21 16 12 10 -17 27 -5
19 15 -4 11 2 8 17 -7 15 -15 25 -19 28 -12 2 7 9 9 15 5 6 -4 8 0 4 10 -4 11
-2 14 9 10 7 -3 14 -10 14 -15 0 -6 6 -8 14 -5 8 3 17 -1 20 -9 3 -9 10 -12
16 -9 5 3 10 -3 10 -14 0 -30 -19 -35 -26 -6 -7 30 -21 25 -21 -9 0 -18 5 -24
23 -24 14 0 27 5 30 10 3 5 13 0 21 -11 8 -12 19 -21 25 -21 6 0 1 11 -11 24
-16 17 -20 30 -15 50 4 16 2 26 -5 26 -6 0 -11 4 -11 9 0 20 39 -3 45 -26 4
-16 11 -23 20 -19 14 5 19 -5 16 -31 -1 -7 3 -13 10 -13 7 0 9 10 7 25 -6 30
5 32 32 5 18 -18 20 -18 20 -2 0 14 2 15 10 2 8 -12 10 -10 11 10 1 17 3 19 6
8 2 -10 13 -18 25 -18 18 0 19 4 13 65 -5 39 -4 65 2 65 5 0 10 -17 11 -37 0
-21 1 -48 1 -60 1 -12 9 -27 19 -33 13 -9 13 -10 1 -7 -12 4 -14 -1 -11 -26 5
-30 5 -31 14 -8 4 13 11 22 13 19 10 -9 -15 -59 -25 -53 -5 3 -10 1 -10 -4 0
-6 17 -10 39 -9 23 1 38 6 35 12 -2 6 11 21 28 34 18 12 27 22 20 22 -7 0 -10
5 -7 10 4 6 0 22 -9 35 -20 31 -21 56 -1 29 8 -10 15 -14 15 -9 0 6 7 -5 15
-22 8 -18 21 -33 30 -33 9 0 15 -9 15 -21 0 -15 5 -19 15 -15 18 6 19 1 5 -25
-9 -16 -7 -19 12 -19 19 0 20 2 8 10 -12 8 -11 10 6 10 11 0 25 -5 32 -12 9
-9 12 26 12 161 0 165 -1 172 -19 166 -29 -9 -34 10 -6 23 17 8 25 20 25 37 0
23 -4 26 -27 23 -16 -2 -27 -8 -26 -14 3 -16 -37 -5 -44 12 -2 7 -11 10 -19 7
-8 -3 -14 0 -14 6 0 6 -9 11 -19 11 -11 0 -23 5 -26 10 -5 8 -11 7 -21 -1 -8
-6 -14 -8 -14 -3 0 4 -6 2 -12 -5 -17 -16 -16 -69 1 -76 10 -4 4 -13 -20 -31
-29 -21 -34 -23 -37 -8 -2 9 1 21 7 27 17 17 14 57 -5 57 -8 0 -13 -4 -10 -8
3 -5 -18 -10 -46 -11 -61 -2 -68 -6 -42 -26 18 -14 18 -14 0 -15 -19 0 -19
-20 -1 -75 6 -17 5 -18 -5 -5 -10 13 -11 11 -7 -8 3 -12 1 -20 -4 -16 -6 3 -9
20 -7 37 2 26 -1 32 -15 30 -10 0 -16 1 -13 5 3 3 -2 11 -12 18 -16 12 -15 13
6 14 21 0 26 9 23 38 -1 6 2 12 6 12 9 0 9 78 -1 87 -3 3 -6 0 -6 -9 0 -8 -12
-20 -27 -27 -24 -11 -29 -9 -60 24 -18 20 -38 33 -43 30 -6 -3 -10 1 -10 9 0
9 -7 17 -15 18 -8 0 -21 1 -27 2 -7 1 -18 10 -23 21 -15 28 -55 33 -55 7z m20
-43 c0 -6 9 -9 20 -6 11 3 20 1 20 -4 0 -4 7 -6 15 -3 9 4 15 1 15 -7 0 -7 7
-20 16 -30 9 -10 13 -22 10 -27 -10 -16 -79 5 -98 29 -20 23 -24 59 -8 59 6 0
10 -5 10 -11z m37 -114 c-4 -8 -2 -17 3 -20 4 -3 10 1 13 7 3 10 7 10 20 -1
11 -9 17 -10 17 -2 0 6 4 11 9 11 6 0 6 -12 0 -32 -13 -48 -11 -66 11 -88 11
-11 20 -30 20 -42 0 -18 2 -20 10 -8 10 16 12 12 23 -37 6 -26 3 -27 -24 -13
-11 7 -21 26 -25 50 -4 24 -17 49 -36 67 l-30 28 21 -37 c25 -46 21 -47 -23
-7 -22 20 -32 37 -29 49 3 12 -3 22 -16 29 -20 11 -28 41 -14 54 3 4 17 7 31
7 17 0 23 -4 19 -15z m153 -53 c0 -7 -4 -10 -10 -7 -5 3 -10 16 -10 28 0 18 2
19 10 7 5 -8 10 -21 10 -28z m174 -34 c3 -15 2 -30 -4 -33 -5 -3 -10 1 -10 9
0 9 -7 16 -15 16 -12 0 -13 4 -3 25 13 28 22 23 32 -17z m-158 -43 c3 -22 3
-37 -1 -33 -4 4 -11 26 -15 48 -4 23 -4 38 0 33 5 -4 12 -26 16 -48z m-256 3
c0 -19 -2 -20 -10 -8 -13 19 -13 30 0 30 6 0 10 -10 10 -22z m290 -35 c0 -22
-8 -14 -19 20 -10 29 -9 30 4 13 8 -11 15 -26 15 -33z m317 -50 c-3 -10 -5 -2
-5 17 0 19 2 27 5 18 2 -10 2 -26 0 -35z m-517 -39 c0 -8 -5 -12 -10 -9 -6 4
-8 11 -5 16 9 14 15 11 15 -7z m430 -79 c0 -15 -7 -28 -17 -32 -10 -4 -21 -11
-25 -17 -5 -7 -8 -6 -8 2 0 14 37 72 46 72 2 0 4 -11 4 -25z"/>
<path d="M940 550 c-12 -8 -10 -10 8 -10 13 0 20 4 17 10 -7 12 -6 12 -25 0z"/>
<path d="M3480 551 c0 -5 5 -13 10 -16 6 -3 10 -2 10 4 0 5 -4 13 -10 16 -5 3
-10 2 -10 -4z"/>
<path d="M2107 535 c-5 -10 0 -15 14 -15 12 0 19 5 17 12 -6 18 -25 20 -31 3z"/>
<path d="M1880 530 c0 -6 7 -10 15 -10 8 0 15 2 15 4 0 2 -7 6 -15 10 -8 3
-15 1 -15 -4z"/>
<path d="M85 520 c3 -5 8 -10 11 -10 2 0 4 5 4 10 0 6 -5 10 -11 10 -5 0 -7
-4 -4 -10z"/>
<path d="M304 513 c3 -6 0 -14 -7 -16 -7 -3 3 -8 21 -12 17 -4 32 -11 32 -16
0 -5 -7 -6 -16 -2 -14 5 -14 3 -3 -15 10 -16 16 -18 26 -10 10 8 17 6 29 -8 9
-10 13 -14 11 -9 -3 6 1 16 9 23 8 7 14 9 14 5 0 -4 7 1 15 11 15 19 15 19 15
-2 0 -15 5 -20 15 -16 8 4 15 10 15 16 0 16 -29 40 -40 33 -6 -4 -9 -1 -8 6 2
6 -3 14 -11 17 -8 3 -11 0 -7 -7 9 -14 0 -14 -25 -1 -13 8 -25 7 -41 -1 -18
-10 -20 -9 -15 4 4 11 0 15 -14 14 -11 -1 -17 -7 -15 -14z m76 -32 c0 -6 -4
-13 -10 -16 -5 -3 -10 1 -10 9 0 9 5 16 10 16 6 0 10 -4 10 -9z"/>
<path d="M1028 523 c7 -3 16 -2 19 1 4 3 -2 6 -13 5 -11 0 -14 -3 -6 -6z"/>
<path d="M5383 496 c2 -20 7 -36 12 -36 14 0 12 63 -2 67 -8 3 -11 -7 -10 -31z"/>
<path d="M220 511 c0 -6 -7 -11 -15 -11 -8 0 -15 -5 -15 -11 0 -5 4 -8 9 -5 5
4 8 -5 6 -19 -2 -24 0 -26 29 -22 39 5 66 16 66 29 0 5 -4 6 -10 3 -10 -6 -14
7 -11 33 1 6 -2 12 -8 12 -5 0 -11 -6 -14 -12 -3 -10 -7 -10 -20 1 -11 9 -17
10 -17 2z"/>
<path d="M470 511 c0 -5 5 -13 10 -16 6 -3 10 -2 10 4 0 5 -4 13 -10 16 -5 3
-10 2 -10 -4z"/>
<path d="M500 481 c0 -5 5 -13 10 -16 6 -3 10 -2 10 4 0 5 -4 13 -10 16 -5 3
-10 2 -10 -4z"/>
<path d="M140 464 c0 -8 5 -12 10 -9 6 3 10 10 10 16 0 5 -4 9 -10 9 -5 0 -10
-7 -10 -16z"/>
<path d="M166 465 c-3 -8 -1 -17 3 -20 5 -3 11 2 15 10 3 8 1 17 -3 20 -5 3
-11 -2 -15 -10z"/>
<path d="M3353 470 c17 -60 40 -121 44 -117 5 6 -23 93 -38 116 -9 13 -10 13
-6 1z"/>
<path d="M122 450 c0 -14 2 -19 5 -12 2 6 2 18 0 25 -3 6 -5 1 -5 -13z"/>
<path d="M3470 450 c0 -5 5 -10 11 -10 5 0 7 5 4 10 -3 6 -8 10 -11 10 -2 0
-4 -4 -4 -10z"/>
<path d="M741 414 c0 -11 3 -14 6 -6 3 7 2 16 -1 19 -3 4 -6 -2 -5 -13z"/>
<path d="M4159 418 c0 -2 -2 -10 -5 -18 -6 -24 -14 -77 -8 -59 3 11 13 15 29
11 15 -2 25 0 25 7 0 7 5 9 10 6 18 -11 11 -34 -12 -38 -20 -4 -19 -4 4 -6 20
-1 26 -5 22 -16 -4 -8 -1 -15 6 -15 8 0 10 9 6 25 -9 35 9 31 24 -5 7 -17 15
-28 18 -25 10 9 42 -28 42 -49 1 -20 1 -20 11 -3 8 14 8 22 0 30 -6 6 -11 18
-10 27 0 13 1 13 6 0 4 -8 15 -23 25 -32 14 -12 18 -23 13 -40 -7 -23 -7 -23
10 -3 9 11 14 15 11 9 -3 -7 5 -14 18 -16 18 -4 23 -1 18 10 -3 10 -1 13 6 8
7 -4 12 -1 12 9 0 12 -6 15 -20 10 -11 -3 -20 -2 -20 4 0 5 10 11 23 13 13 2
21 9 18 18 -2 8 -6 36 -9 62 -2 26 -11 53 -18 59 -9 7 -14 8 -14 1 0 -5 -9 -8
-20 -5 -15 4 -20 0 -20 -15 0 -12 -11 -33 -25 -48 -18 -19 -25 -22 -25 -11 0
9 -12 18 -29 22 -17 3 -31 14 -34 26 -4 14 -14 19 -42 19 -20 0 -34 4 -30 9 3
5 1 12 -5 16 -5 3 -10 5 -11 3z m26 -48 c3 -5 -1 -10 -10 -10 -9 0 -13 5 -10
10 3 6 8 10 10 10 2 0 7 -4 10 -10z m202 -102 c-3 -7 -5 -2 -5 12 0 14 2 19 5
13 2 -7 2 -19 0 -25z"/>
<path d="M865 400 c3 -5 10 -10 16 -10 5 0 9 5 9 10 0 6 -7 10 -16 10 -8 0
-12 -4 -9 -10z"/>
<path d="M3982 369 c2 -6 8 -10 13 -10 5 0 11 4 13 10 2 6 -4 11 -13 11 -9 0
-15 -5 -13 -11z"/>
<path d="M1070 340 c0 -5 5 -10 10 -10 6 0 10 5 10 10 0 6 -4 10 -10 10 -5 0
-10 -4 -10 -10z"/>
<path d="M3406 310 c3 -19 10 -39 15 -44 13 -14 10 2 -7 44 l-14 35 6 -35z"/>
<path d="M143 295 c15 -32 26 -32 19 0 -2 14 -10 25 -17 25 -10 0 -11 -5 -2
-25z"/>
<path d="M4031 302 c-6 -12 -8 -28 -5 -36 4 -10 1 -16 -7 -16 -7 0 -10 -2 -8
-5 3 -2 23 2 44 9 27 10 41 21 43 35 2 13 -2 21 -11 21 -9 0 -22 3 -30 6 -9 3
-20 -2 -26 -14z"/>
<path d="M476 293 c-6 -14 -5 -15 5 -6 7 7 10 15 7 18 -3 3 -9 -2 -12 -12z"/>
<path d="M720 288 c0 -4 4 -8 9 -8 6 0 12 4 15 8 3 5 -1 9 -9 9 -8 0 -15 -4
-15 -9z"/>
<path d="M1850 290 c0 -5 5 -10 11 -10 5 0 7 5 4 10 -3 6 -8 10 -11 10 -2 0
-4 -4 -4 -10z"/>
<path d="M3085 278 c10 -30 14 -34 24 -22 4 5 -1 17 -11 27 -20 19 -20 18 -13
-5z"/>
<path d="M3336 285 c-3 -8 -1 -15 4 -15 6 0 10 7 10 15 0 8 -2 15 -4 15 -2 0
-6 -7 -10 -15z"/>
<path d="M3494 289 c-3 -6 -1 -16 5 -22 8 -8 11 -5 11 11 0 24 -5 28 -16 11z"/>
<path d="M571 264 c0 -11 3 -14 6 -6 3 7 2 16 -1 19 -3 4 -6 -2 -5 -13z"/>
<path d="M870 265 c0 -8 4 -15 10 -15 5 0 7 7 4 15 -4 8 -8 15 -10 15 -2 0 -4
-7 -4 -15z"/>
<path d="M2913 273 c-7 -3 -13 -9 -13 -15 0 -6 -8 -17 -17 -24 -14 -10 -15
-15 -6 -25 10 -10 14 -9 19 5 5 13 9 14 20 5 9 -8 14 -8 14 -1 0 6 -5 14 -10
17 -8 5 -7 11 1 21 13 16 10 23 -8 17z"/>
<path d="M3760 258 c0 -16 3 -18 13 -9 8 6 17 8 20 4 4 -3 7 -2 7 4 0 6 -9 13
-20 16 -15 4 -20 0 -20 -15z"/>
<path d="M221 254 c0 -11 3 -14 6 -6 3 7 2 16 -1 19 -3 4 -6 -2 -5 -13z"/>
<path d="M2085 260 c-8 -13 5 -13 25 0 13 8 13 10 -2 10 -9 0 -20 -4 -23 -10z"/>
<path d="M2781 254 c0 -11 3 -14 6 -6 3 7 2 16 -1 19 -3 4 -6 -2 -5 -13z"/>
<path d="M2807 263 c-4 -6 -1 -15 6 -21 15 -11 47 -12 47 0 0 4 -9 8 -19 8
-11 0 -21 5 -23 12 -3 8 -6 9 -11 1z"/>
<path d="M2976 254 c-4 -9 -4 -19 -1 -22 3 -3 5 0 5 7 0 7 4 10 9 7 5 -3 7
-16 4 -29 -4 -19 -3 -20 7 -4 8 13 8 22 -3 38 -13 18 -15 18 -21 3z"/>
<path d="M3365 260 c-3 -6 1 -7 9 -4 18 7 21 14 7 14 -6 0 -13 -4 -16 -10z"/>
<path d="M2185 251 c-3 -5 -2 -12 3 -15 5 -3 9 1 9 9 0 17 -3 19 -12 6z"/>
<path d="M2423 241 c0 -11 5 -18 9 -15 4 3 5 11 1 19 -7 21 -12 19 -10 -4z"/>
<path d="M3023 233 c1 -18 5 -33 9 -33 10 0 9 19 -2 45 -7 16 -9 14 -7 -12z"/>
<path d="M3221 238 c0 -13 3 -18 5 -11 3 7 12 9 20 6 8 -3 14 -1 14 5 0 8 -22
22 -36 22 -2 0 -4 -10 -3 -22z"/>
<path d="M3290 246 c0 -8 -5 -16 -12 -18 -8 -3 -8 -9 -1 -22 9 -16 11 -15 22
14 13 40 13 40 1 40 -5 0 -10 -6 -10 -14z"/>
<path d="M3324 234 c-4 -14 -2 -30 4 -36 7 -7 10 1 10 26 0 42 -5 46 -14 10z"/>
<path d="M3570 245 c0 -8 4 -15 8 -15 5 0 9 7 9 15 0 8 -4 15 -9 15 -4 0 -8
-7 -8 -15z"/>
<path d="M3621 257 c-2 -17 31 -77 39 -72 5 3 12 -4 15 -16 4 -11 9 -18 12
-16 2 3 0 14 -6 25 -8 16 -7 21 4 26 9 3 15 0 15 -9 0 -18 16 -20 26 -3 4 6 3
8 -3 5 -6 -4 -13 3 -16 14 -5 20 -7 20 -22 5 -9 -9 -20 -16 -25 -16 -11 0 -21
30 -13 42 3 6 1 8 -5 4 -5 -3 -13 0 -15 6 -3 7 -6 9 -6 5z"/>
<path d="M3730 251 c0 -6 4 -13 10 -16 6 -3 7 1 4 9 -7 18 -14 21 -14 7z"/>
<path d="M4590 252 c0 -5 6 -17 14 -27 7 -10 11 -28 9 -39 -2 -13 3 -9 13 11
9 17 14 38 11 47 -6 16 -47 23 -47 8z"/>
<path d="M753 243 c-23 -8 -14 -47 12 -60 30 -14 43 1 22 25 -8 9 -16 22 -18
28 -2 6 -10 9 -16 7z"/>
<path d="M2530 239 c0 -5 5 -7 10 -4 6 3 10 8 10 11 0 2 -4 4 -10 4 -5 0 -10
-5 -10 -11z"/>
<path d="M3825 240 c-4 -6 -3 -10 2 -9 21 4 25 -2 11 -18 -18 -22 -32 -83 -18
-83 11 0 53 39 45 41 -3 1 -9 3 -15 4 -5 1 -13 3 -16 4 -4 0 1 12 9 25 14 20
14 26 3 36 -10 8 -16 8 -21 0z"/>
<path d="M893 229 c-24 -9 -31 -43 -13 -54 6 -3 10 3 10 14 0 12 5 21 10 21 6
0 10 -7 10 -16 0 -23 24 -11 28 13 4 25 -15 33 -45 22z"/>
<path d="M2465 229 c-4 -6 -5 -12 -2 -15 2 -3 7 2 10 11 7 17 1 20 -8 4z"/>
<path d="M685 213 c-16 -13 -17 -15 -2 -10 11 4 17 1 17 -8 0 -19 16 -19 23
-1 10 24 -15 36 -38 19z"/>
<path d="M1061 214 c0 -11 3 -14 6 -6 3 7 2 16 -1 19 -3 4 -6 -2 -5 -13z"/>
<path d="M3096 215 c-4 -13 -10 -14 -26 -5 -13 7 -20 7 -20 0 0 -5 4 -10 9
-10 5 0 17 -7 25 -16 15 -14 16 -14 16 5 0 12 5 21 10 21 6 0 10 5 10 10 0 16
-17 12 -24 -5z"/>
<path d="M3446 214 c-4 -9 -4 -19 -1 -22 2 -3 7 3 11 12 4 9 4 19 1 22 -2 3
-7 -3 -11 -12z"/>
<path d="M955 210 c-3 -5 -1 -10 4 -10 6 0 11 5 11 10 0 6 -2 10 -4 10 -3 0
-8 -4 -11 -10z"/>
<path d="M1002 200 c0 -14 2 -19 5 -12 2 6 2 18 0 25 -3 6 -5 1 -5 -13z"/>
<path d="M2945 209 c-4 -6 -5 -12 -2 -15 2 -3 7 2 10 11 7 17 1 20 -8 4z"/>
<path d="M3475 200 c3 -5 8 -10 11 -10 2 0 4 5 4 10 0 6 -5 10 -11 10 -5 0 -7
-4 -4 -10z"/>
<path d="M3535 200 c-3 -5 -1 -10 4 -10 6 0 11 5 11 10 0 6 -2 10 -4 10 -3 0
-8 -4 -11 -10z"/>
<path d="M4059 203 c-21 -5 -44 -53 -26 -53 8 0 21 -15 31 -32 9 -18 14 -25
11 -15 -8 28 3 37 30 27 16 -6 25 -6 25 0 0 6 -5 10 -12 10 -6 0 -8 3 -5 6 7
7 -23 65 -33 63 -3 -1 -12 -3 -21 -6z m-3 -40 c-10 -10 -19 5 -10 18 6 11 8
11 12 0 2 -7 1 -15 -2 -18z"/>
<path d="M3990 187 c-8 -7 -16 -21 -18 -32 l-3 -20 17 20 c14 16 16 17 10 3
-18 -52 -18 -54 -2 -34 9 11 16 32 16 48 0 32 0 32 -20 15z"/>
<path d="M420 181 c0 -5 7 -15 17 -22 15 -13 15 -12 4 9 -12 23 -21 28 -21 13z"/>
<path d="M3892 178 c-18 -18 -14 -30 8 -23 16 5 19 3 13 -12 -7 -19 -5 -18 17
11 10 13 10 17 3 12 -8 -4 -13 -1 -13 8 0 19 -11 21 -28 4z"/>
<path d="M4242 150 c-15 -50 -15 -61 1 -55 10 4 24 95 15 95 -2 0 -9 -18 -16
-40z"/>
<path d="M4339 188 c-5 -18 -6 -38 -1 -34 7 8 12 36 6 36 -2 0 -4 -1 -5 -2z"/>
<path d="M4297 160 c-3 -11 -1 -20 4 -20 5 0 9 9 9 20 0 11 -2 20 -4 20 -2 0
-6 -9 -9 -20z"/>
<path d="M3761 153 c-8 -16 -7 -24 3 -32 17 -15 30 13 17 36 -7 14 -10 14 -20
-4z"/>
<path d="M3951 154 c0 -11 3 -14 6 -6 3 7 2 16 -1 19 -3 4 -6 -2 -5 -13z"/>
<path d="M4223 149 c-2 -23 3 -25 10 -4 4 8 3 16 -1 19 -4 3 -9 -4 -9 -15z"/>
<path d="M380 151 c0 -5 -3 -16 -6 -25 -4 -11 -1 -16 10 -16 18 0 22 35 6 45
-5 3 -10 2 -10 -4z"/>
<path d="M417 143 c-4 -3 -7 -11 -7 -17 0 -6 5 -5 12 2 6 6 9 14 7 17 -3 3 -9
2 -12 -2z"/>
<path d="M4173 143 c-18 -7 -16 -23 2 -23 8 0 15 7 15 15 0 8 -1 15 -2 14 -2
0 -9 -3 -15 -6z"/>
<path d="M4640 130 c6 -11 8 -25 5 -30 -3 -6 1 -10 9 -10 12 0 13 5 5 30 -6
17 -15 30 -20 30 -6 0 -5 -9 1 -20z"/>
<path d="M4350 119 c0 -11 4 -18 10 -14 5 3 7 12 3 20 -7 21 -13 19 -13 -6z"/>
<path d="M4392 128 c-14 -14 -16 -28 -3 -28 5 0 11 9 14 20 6 23 5 24 -11 8z"/>
<path d="M3880 110 c0 -5 7 -7 15 -4 8 4 15 8 15 10 0 2 -7 4 -15 4 -8 0 -15
-4 -15 -10z"/>
<path d="M4200 109 c0 -5 5 -7 10 -4 6 3 10 8 10 11 0 2 -4 4 -10 4 -5 0 -10
-5 -10 -11z"/>
<path d="M4470 110 c0 -5 5 -10 10 -10 6 0 10 5 10 10 0 6 -4 10 -10 10 -5 0
-10 -4 -10 -10z"/>
<path d="M1860 99 c0 -5 5 -7 10 -4 6 3 10 8 10 11 0 2 -4 4 -10 4 -5 0 -10
-5 -10 -11z"/>
<path d="M4830 95 c0 -8 4 -15 10 -15 5 0 7 7 4 15 -4 8 -8 15 -10 15 -2 0 -4
-7 -4 -15z"/>
<path d="M3668 86 c-28 -21 -21 -31 22 -32 44 -1 49 5 22 29 -22 20 -22 20
-44 3z"/>
<path d="M4276 85 c-3 -8 -1 -15 4 -15 6 0 10 7 10 15 0 8 -2 15 -4 15 -2 0
-6 -7 -10 -15z"/>
<path d="M1375 80 c-4 -6 -11 -8 -16 -5 -5 4 -9 1 -9 -4 0 -6 7 -11 15 -11 8
0 15 -4 15 -10 0 -5 9 -10 20 -10 24 0 28 35 4 44 -21 8 -22 8 -29 -4z"/>
<path d="M4505 50 c-4 -7 0 -19 9 -28 13 -14 16 -14 16 -2 0 25 -16 44 -25 30z"/>
<path d="M4440 31 c-12 -24 -13 -31 -2 -31 5 0 14 11 20 25 14 29 -2 34 -18 6z"/>
<path d="M4866 42 c-3 -4 4 -16 15 -25 22 -19 25 -10 5 16 -8 10 -17 14 -20 9z"/>
<path d="M5004 33 c3 -8 6 -20 6 -26 0 -7 4 -5 9 3 17 28 16 33 -2 36 -13 2
-17 -2 -13 -13z"/>
<path d="M4316 24 c-4 -9 -4 -19 -1 -22 2 -3 7 3 11 12 4 9 4 19 1 22 -2 3 -7
-3 -11 -12z"/>
<path d="M4631 24 c0 -11 3 -14 6 -6 3 7 2 16 -1 19 -3 4 -6 -2 -5 -13z"/>
<path d="M5105 30 c-4 -6 -11 -8 -16 -5 -5 4 -9 2 -9 -4 0 -6 -7 -8 -15 -5 -8
4 -15 1 -15 -4 0 -6 16 -10 35 -9 26 2 35 7 35 20 0 19 -6 22 -15 7z"/>
<path d="M4601 14 c0 -11 3 -14 6 -6 3 7 2 16 -1 19 -3 4 -6 -2 -5 -13z"/>
<path d="M5247 23 c-12 -11 -8 -23 7 -23 8 0 16 7 20 15 5 15 -14 21 -27 8z"/>
<path d="M4925 10 c3 -5 13 -10 21 -10 8 0 14 5 14 10 0 6 -9 10 -21 10 -11 0
-17 -4 -14 -10z"/>
<path d="M5286 12 c-3 -5 1 -9 9 -9 8 0 12 4 9 9 -3 4 -7 8 -9 8 -2 0 -6 -4
-9 -8z"/>
<path d="M4718 3 c6 -2 18 -2 25 0 6 3 1 5 -13 5 -14 0 -19 -2 -12 -5z"/>
</g>
</svg>
